<svg fill="none" xmlns="http://www.w3.org/2000/svg" viewBox="0 0 180 48"><g clip-path="url(#clip0)"><path d="M35.192 44.487l.684-2.123.638 2.122-1.322.001zm-1.84 1.533c-.023.118-.047.212-.047.33 0 .095 0 .212.047.33h1.84c.024-.118.047-.212.047-.33 0-.094 0-.212-.047-.33h-.495l.26-.825h1.745l.26.825h-.495a.754.754 0 00-.072.33.75.75 0 00.072.33h1.886a.34.34 0 00.048-.165c.023-.047.023-.118.023-.165 0-.047-.023-.094-.023-.165-.024-.047-.024-.118-.048-.165h-.424l-1.486-4.576h-1.086l-1.556 4.576h-.449zM39.273 46.09v-2.476h-.425c-.047-.094-.047-.212-.047-.307 0-.094.024-.212.047-.306h1.227l.024.424c.094-.118.212-.26.401-.353.165-.119.377-.165.613-.165s.448.046.613.14a.833.833 0 01.377.425c.142-.188.308-.354.473-.424.165-.095.377-.142.613-.142.377 0 .66.119.873.354.212.236.306.566.306.99v1.84h.425a.696.696 0 01.047.307c0 .095-.024.212-.047.307h-1.699c-.047-.095-.047-.212-.047-.307a1.4 1.4 0 01.047-.306h.377v-1.746c0-.236-.023-.424-.093-.566-.072-.142-.212-.189-.401-.189-.071 0-.142.024-.213.047a.556.556 0 00-.212.142.74.74 0 00-.165.307 1.373 1.373 0 00-.071.495v1.51h.378a.708.708 0 01.046.307c0 .094-.023.211-.046.306h-1.652c-.047-.095-.047-.212-.047-.307a1.4 1.4 0 01.047-.306h.377v-1.746c0-.236-.023-.424-.094-.566-.07-.142-.212-.189-.4-.189a.688.688 0 00-.213.047.555.555 0 00-.212.143.727.727 0 00-.165.306 1.373 1.373 0 00-.071.495v1.51h.377c.047.094.047.212.047.307 0 .094-.023.211-.047.306h-1.792c-.048-.095-.048-.212-.048-.307 0-.094.024-.212.047-.306h.425zM47.788 44.51h-1.415c.023-.282.094-.519.212-.684.094-.165.282-.26.495-.26.236 0 .401.071.519.237.118.165.189.4.189.684v.023zm.708 1.18c-.197.11-.402.204-.613.283-.189.07-.401.094-.638.094a.98.98 0 01-.377-.071.805.805 0 01-.282-.212.97.97 0 01-.19-.306.978.978 0 01-.07-.378h2.359v-.33c0-.213-.024-.449-.07-.66a1.787 1.787 0 00-.26-.614 1.476 1.476 0 00-.495-.424c-.213-.119-.473-.165-.78-.165-.282 0-.542.046-.754.165-.203.11-.38.262-.519.447-.142.166-.236.378-.307.614-.066.23-.098.468-.094.707 0 .236.047.473.118.708.07.212.188.425.33.614.142.188.354.33.59.447.236.118.543.166.873.166.235 0 .471-.024.684-.095.212-.047.401-.141.566-.212l-.071-.778zM49.77 46.09v-2.476h-.424c-.048-.094-.048-.212-.048-.307 0-.094.024-.212.048-.306h1.203l.023.589c.118-.212.26-.377.424-.472a.994.994 0 01.495-.14c.072 0 .165 0 .237.023.07.024.141.047.189.07l-.095.779c-.047-.024-.118-.048-.165-.071-.071-.023-.142-.023-.236-.023-.07 0-.141.023-.236.046a.49.49 0 00-.236.143.851.851 0 00-.188.282 1.19 1.19 0 00-.071.448v1.392h.495a.686.686 0 01.048.307c0 .094-.024.212-.048.306h-1.84c-.047-.094-.047-.212-.047-.306 0-.095.024-.212.048-.308h.424v.024zM53.567 42.316c.118-.094.165-.235.165-.4a.517.517 0 00-.165-.401.469.469 0 00-.377-.165.501.501 0 00-.377.165c-.118.094-.165.235-.165.4 0 .165.047.284.165.401a.47.47 0 00.377.165.469.469 0 00.377-.165zm-1.132 3.774c-.027.1-.043.204-.047.307 0 .095 0 .212.048.307h1.72c.028-.1.044-.203.048-.307 0-.094 0-.212-.047-.306h-.4V43h-1.321a1.38 1.38 0 00-.048.306c0 .095 0 .212.048.307h.4v2.477h-.401zM57.955 46.421c-.07.047-.142.07-.236.118a1.186 1.186 0 01-.306.118c-.119.023-.237.07-.378.094a2.62 2.62 0 01-.448.048c-.307 0-.543-.048-.779-.142a1.626 1.626 0 01-.566-.425 2.202 2.202 0 01-.354-.613 2.656 2.656 0 01-.023-1.486c.07-.236.165-.448.306-.637.142-.189.307-.33.52-.448.212-.118.447-.165.73-.165.18 0 .358.04.52.118.14.07.26.165.353.283v-.26c.095-.047.212-.047.308-.047.117 0 .211.024.33.07v1.487a.947.947 0 01-.355.07.751.751 0 01-.33-.07v-.236c0-.236-.07-.424-.188-.542a.761.761 0 00-.495-.19.675.675 0 00-.402.119c-.117.07-.189.189-.26.307-.074.13-.123.275-.141.424-.023.165-.047.307-.047.472 0 .377.094.684.283.896.188.212.425.307.731.307a1.4 1.4 0 00.354-.048c.118-.023.212-.07.307-.117.094-.048.188-.095.283-.165.094-.07.188-.142.26-.213l.023.873zM60.998 44.935l-.024.002v-.002h.024zm-.024.002v.54a.476.476 0 01-.071.26c-.047.094-.118.142-.188.212a.797.797 0 01-.284.142c-.117.023-.212.047-.33.047a.555.555 0 01-.401-.142.465.465 0 01-.141-.33c0-.189.07-.33.165-.448.118-.118.283-.189.519-.213l.731-.068zm.141 1.743h1.18c.027-.1.043-.203.047-.306 0-.094 0-.213-.047-.307h-.401V44.18a1.62 1.62 0 00-.07-.519 1.252 1.252 0 00-.19-.354.693.693 0 00-.282-.236c-.098-.05-.201-.089-.307-.118a1.38 1.38 0 00-.307-.047c-.094-.023-.188-.023-.26-.023-.188 0-.354.023-.495.047-.136.018-.27.05-.4.095a3.628 3.628 0 00-.307.14c-.095.048-.166.072-.236.12v.73c.236-.142.448-.236.637-.33.189-.07.401-.118.613-.118.141 0 .26.023.354.047.118.023.189.07.236.142.053.07.093.15.117.235.025.095.025.213.025.33l-.779.072c-.284 0-.519.07-.755.14-.221.07-.418.2-.566.379-.165.188-.236.424-.236.754 0 .19.023.354.095.495.07.143.165.26.282.354.118.095.236.165.401.212.38.11.786.093 1.156-.047.165-.094.307-.188.425-.33l.07.33zM63.263 46.09v-2.476h-.426c-.047-.094-.047-.212-.047-.307 0-.094.024-.212.047-.306h1.227l.024.424c.094-.118.212-.26.4-.353.19-.119.401-.165.685-.165.4 0 .707.118.92.353.212.236.307.566.307.99v1.84h.424c.047.095.047.213.047.307 0 .095-.023.212-.047.307h-1.722c-.047-.095-.047-.212-.047-.307 0-.094.023-.212.047-.306h.378v-1.746c0-.236-.048-.424-.119-.566-.07-.142-.235-.189-.448-.189-.07 0-.165.024-.26.047a.49.49 0 00-.235.142.76.76 0 00-.189.307 1.374 1.374 0 00-.07.495v1.51h.377a.698.698 0 01.047.307c0 .094-.024.211-.047.306h-1.722c-.047-.095-.047-.212-.047-.307 0-.094.023-.212.047-.306h.448zM69.772 42.175h-.4c-.024-.047-.048-.094-.048-.141-.023-.047-.023-.119-.023-.165 0-.119.023-.236.07-.354h1.864c.047.118.07.235.07.354 0 .046 0 .118-.023.165a.437.437 0 01-.047.165h-.543l1.109 3.538 1.155-3.538h-.518a.337.337 0 01-.047-.165c0-.047-.024-.119-.024-.165 0-.119.024-.236.071-.354h1.793c.047.118.07.235.07.354 0 .046 0 .118-.023.165a.437.437 0 01-.047.165h-.402l-1.533 4.576h-1.039l-1.485-4.6zM77.132 44.51h-1.416c.024-.282.095-.519.213-.684.094-.165.259-.26.495-.26s.4.071.52.237c.117.165.188.4.188.684v.023zm.778 1.958h-.07v-.778c-.198.11-.403.204-.614.283-.189.07-.401.094-.638.094a.974.974 0 01-.376-.071 1.268 1.268 0 01-.284-.212.966.966 0 01-.188-.306.977.977 0 01-.071-.378h2.359v-.33a3.15 3.15 0 00-.07-.66 1.787 1.787 0 00-.26-.614 1.476 1.476 0 00-.495-.424c-.213-.119-.473-.165-.779-.165-.283 0-.543.046-.755.165a1.926 1.926 0 00-.519.447 1.666 1.666 0 00-.306.614c-.066.23-.098.468-.094.707 0 .236.047.473.117.708.07.212.19.425.33.614.142.188.354.33.59.447.236.118.543.166.873.166.236 0 .472-.024.684-.095.212-.047.401-.141.566-.212zM78.995 43.614h-.448c-.047-.118-.047-.236-.047-.33 0-.094.023-.212.047-.307h.448v-.849l.92-.472v1.321h.731a.695.695 0 01.047.307c0 .094-.023.188-.047.33h-.731v2.052c0 .165.024.26.094.33.07.048.152.073.237.071.093 0 .165 0 .235-.024.071-.023.165-.047.284-.117v.66c-.123.05-.25.09-.379.118-.14.023-.259.023-.353.023-.378 0-.637-.093-.802-.282-.165-.19-.236-.472-.236-.85v-1.981zM83.689 44.51h-1.415c.024-.282.094-.519.212-.684.094-.165.283-.26.496-.26.235 0 .4.071.519.237.117.165.188.4.188.684v.023zm.685 1.18c-.198.11-.403.204-.614.283-.189.07-.401.094-.637.094a.98.98 0 01-.378-.071.806.806 0 01-.282-.212.967.967 0 01-.19-.306.976.976 0 01-.07-.378h2.359v-.33c0-.213-.023-.449-.07-.66a1.783 1.783 0 00-.26-.614 1.474 1.474 0 00-.495-.424c-.213-.119-.473-.165-.78-.165-.282 0-.542.046-.754.165-.203.11-.38.262-.519.447-.142.166-.235.378-.307.614-.066.23-.098.468-.094.707 0 .236.047.473.118.708.07.212.189.425.33.614.142.188.354.33.59.447.236.118.543.166.873.166.235 0 .472-.024.684-.095.212-.047.401-.141.566-.212l-.07-.778zM85.67 46.09v-2.476h-.424c-.047-.094-.047-.212-.047-.307 0-.094.023-.212.047-.306h1.203l.024.589c.118-.212.26-.377.424-.472a.994.994 0 01.495-.14c.072 0 .165 0 .237.023.07.024.14.047.188.07l-.095.779c-.046-.024-.117-.048-.165-.071-.07-.023-.14-.023-.235-.023-.072 0-.142.023-.237.046a.489.489 0 00-.235.143.846.846 0 00-.189.282 1.19 1.19 0 00-.07.448v1.392h.495a.697.697 0 01.047.307c0 .094-.023.212-.047.306h-1.84c-.047-.094-.047-.212-.047-.306 0-.095.023-.212.047-.308h.424v.024zM89.468 42.316c.118-.094.164-.235.164-.4a.516.516 0 00-.165-.401.47.47 0 00-.376-.165.502.502 0 00-.378.165c-.118.094-.165.235-.165.4 0 .165.047.284.165.401a.471.471 0 00.378.165.503.503 0 00.377-.165zm-1.156 3.774c-.027.1-.043.203-.047.307 0 .095 0 .212.047.307h1.722c.028-.1.044-.203.048-.307 0-.094 0-.212-.047-.306h-.402V43h-1.32c-.028.1-.044.203-.048.306 0 .095 0 .212.047.307h.401v2.477h-.4zM91.095 46.09v-2.476h-.424c-.047-.094-.047-.212-.047-.307 0-.094.023-.212.047-.306h1.226l.024.424c.094-.118.213-.26.401-.353.189-.119.401-.165.684-.165.401 0 .708.118.92.353.212.236.307.566.307.99v1.84h.424c.048.095.048.213.048.307 0 .095-.024.212-.047.307h-1.722c-.048-.095-.048-.212-.048-.307 0-.094.024-.212.047-.306h.378v-1.746c0-.236-.047-.424-.118-.566-.07-.142-.235-.189-.448-.189-.071 0-.165.024-.26.047a.49.49 0 00-.236.142.76.76 0 00-.189.307c-.047.117-.07.282-.07.495v1.51h.377c.047.094.047.212.047.307 0 .094-.023.211-.047.306h-1.722c-.047-.095-.047-.212-.047-.307 0-.094.024-.212.047-.306h.449-.001zM97.535 44.935l-.024.002v-.002h.024zm-.024.002v.54a.475.475 0 01-.07.26c-.047.094-.118.142-.19.212a.798.798 0 01-.282.142c-.118.023-.212.047-.33.047a.554.554 0 01-.401-.142.465.465 0 01-.142-.33c0-.189.071-.33.165-.448.119-.118.284-.189.52-.213l.73-.068zm.165 1.743h1.18c.027-.1.043-.203.047-.306 0-.094 0-.213-.047-.307h-.401V44.18a1.62 1.62 0 00-.07-.519 1.249 1.249 0 00-.19-.354.693.693 0 00-.282-.236c-.099-.05-.201-.089-.307-.118a1.377 1.377 0 00-.307-.047c-.094-.023-.188-.023-.26-.023-.188 0-.353.023-.494.047-.137.018-.272.05-.402.095a3.64 3.64 0 00-.306.14c-.094.048-.165.072-.236.12v.73c.236-.142.448-.236.638-.33.187-.07.4-.118.612-.118.142 0 .26.023.354.047.118.023.189.07.236.142.047.07.094.14.118.235.024.095.024.213.024.33l-.779.072c-.283 0-.519.07-.755.14-.221.07-.418.2-.566.379-.165.188-.236.424-.236.754 0 .19.024.354.095.495.07.143.165.26.282.354.119.095.237.165.402.212.38.11.785.093 1.155-.047.165-.094.307-.188.425-.33l.07.33zM99.824 46.09v-2.476h-.426c-.046-.094-.046-.212-.046-.307 0-.094.023-.212.046-.306h1.203l.024.589c.118-.212.26-.377.425-.472a.994.994 0 01.495-.14c.071 0 .165 0 .236.023.071.024.142.047.189.07l-.094.779c-.048-.024-.118-.048-.165-.071-.072-.023-.143-.023-.237-.023-.07 0-.141.023-.235.046a.485.485 0 00-.236.143.84.84 0 00-.189.282 1.198 1.198 0 00-.071.448v1.392h.495c.048.095.048.212.048.307 0 .094-.024.212-.047.306h-1.84c-.047-.094-.047-.212-.047-.306 0-.095.023-.212.046-.308h.426v.024zM102.489 47.223c.188.07.33.095.424.118.094 0 .189.024.26.024a.426.426 0 00.353-.165c.095-.095.189-.284.26-.52l-1.179-3.066h-.33c-.048-.094-.048-.212-.048-.307 0-.094.024-.212.047-.306h1.605a.742.742 0 01.07.307.721.721 0 01-.071.306h-.377l.731 2.123.731-2.123h-.354c-.047-.094-.047-.212-.047-.307 0-.094.024-.212.047-.306h1.533c.048.094.048.212.048.307 0 .094-.024.212-.048.306h-.306l-1.227 3.232c-.07.212-.165.4-.259.542a1.505 1.505 0 01-.307.354c-.118.095-.212.165-.353.188a1.1 1.1 0 01-.401.072h-.237c-.07 0-.141 0-.188-.025-.071 0-.118-.023-.189-.047-.07-.023-.118-.023-.188-.047v-.66zM109.187 46.02v-3.845h-.471a.325.325 0 01-.048-.141c-.023-.047-.023-.119-.023-.165 0-.119.023-.236.071-.354h1.674l1.251 4.033 1.274-4.033h1.651c.047.118.07.235.07.354 0 .046 0 .118-.023.165a.255.255 0 01-.047.14h-.472v3.846h.472c.047.095.07.212.07.33a.753.753 0 01-.07.33h-1.84a.416.416 0 01-.047-.165c-.024-.047-.024-.118-.024-.165 0-.118.024-.235.071-.33h.472v-3.279l-1.203 3.821h-.825l-1.18-3.82v3.278h.472c.023.047.047.095.07.165.024.047.024.118.024.165 0 .047 0 .118-.024.165-.023.071-.023.119-.07.19h-1.77a.434.434 0 01-.047-.166c0-.047-.023-.118-.023-.165 0-.047 0-.118.023-.165 0-.047.023-.118.047-.165h.495v-.024zM117.656 44.51h-1.416c.024-.282.095-.519.213-.684.094-.165.283-.26.495-.26.236 0 .401.071.519.237.118.165.189.4.189.684v.023zm.708 1.18c-.198.11-.403.204-.614.283-.189.07-.401.094-.637.094a.986.986 0 01-.378-.071.805.805 0 01-.282-.212.973.973 0 01-.189-.306.997.997 0 01-.071-.378h2.359v-.33c0-.213-.023-.449-.071-.66a1.784 1.784 0 00-.259-.614 1.479 1.479 0 00-.495-.424c-.213-.119-.473-.165-.779-.165-.283 0-.543.046-.755.165-.203.11-.381.262-.519.447a1.691 1.691 0 00-.307.614 2.45 2.45 0 00.024 1.415c.071.212.189.425.33.614.142.188.354.33.59.447.236.118.543.166.873.166.236 0 .472-.024.684-.095.212-.047.401-.141.566-.212l-.07-.778zM121.005 46.114c-.259 0-.448-.118-.637-.33-.141-.236-.212-.52-.212-.873 0-.118 0-.236.023-.4.024-.166.072-.308.119-.45a.971.971 0 01.259-.352.68.68 0 01.448-.142.66.66 0 01.425.142.932.932 0 01.236.353c.07.142.094.283.118.425.023.141.023.283.023.377 0 .26-.023.472-.094.637a.837.837 0 01-.212.377.496.496 0 01-.26.19c-.094.023-.165.047-.236.047zm.873.59h1.25a1.36 1.36 0 00.048-.307c0-.094 0-.212-.048-.306h-.424v-4.788h-1.322a.739.739 0 00-.07.306c0 .094.023.212.07.306h.402v1.44a.864.864 0 00-.378-.33 1.399 1.399 0 00-.543-.119c-.259 0-.495.047-.684.142-.19.1-.358.236-.495.401a1.661 1.661 0 00-.306.613c-.095.236-.118.495-.118.755 0 .236.023.448.07.684.048.236.142.448.26.638.142.187.283.352.495.47.189.118.448.19.755.19.425 0 .779-.19 1.014-.544l.024.449zM124.874 42.316c.117-.094.165-.235.165-.4 0-.166-.071-.283-.165-.401a.48.48 0 00-.378-.165.5.5 0 00-.377.165c-.118.094-.165.235-.165.4 0 .165.047.284.165.401a.47.47 0 00.377.165c.165 0 .283-.047.378-.165zm-1.133 3.774c-.027.1-.043.204-.047.307a.7.7 0 00.047.307h1.722c.024-.095.047-.212.047-.307 0-.094 0-.212-.047-.306h-.4V43h-1.322c-.027.1-.043.203-.047.306a.7.7 0 00.047.307h.401v2.477h-.401zM129.261 46.421c-.071.047-.142.07-.236.118-.094.047-.188.095-.307.118-.118.023-.235.07-.377.094a2.63 2.63 0 01-.448.048 2.077 2.077 0 01-.778-.142 1.63 1.63 0 01-.897-1.038 2.674 2.674 0 01-.024-1.486c.072-.236.165-.448.308-.637.138-.186.315-.338.518-.448.212-.118.449-.165.731-.165.18 0 .357.04.519.118.142.07.26.165.33.283v-.26c.095-.047.213-.047.307-.047a.83.83 0 01.33.07v1.487a.947.947 0 01-.353.07.944.944 0 01-.354-.07v-.236c0-.236-.071-.424-.189-.542a.762.762 0 00-.495-.19.674.674 0 00-.401.119c-.118.07-.189.189-.26.307-.075.13-.123.275-.142.424-.023.165-.046.307-.046.472 0 .377.094.684.283.896.189.212.424.307.731.307.142 0 .259-.024.354-.048.118-.023.212-.07.307-.117.093-.048.188-.095.282-.165.095-.07.189-.142.26-.213l.047.873zM132.304 45.477a.475.475 0 01-.071.26c-.047.094-.118.142-.189.212a.801.801 0 01-.282.142c-.119.023-.213.047-.33.047a.556.556 0 01-.402-.142.464.464 0 01-.142-.33.68.68 0 01.142-.448c.118-.118.283-.189.519-.213l.755-.07v.542zm.117 1.203h1.18a1.41 1.41 0 00.047-.306c0-.094 0-.213-.047-.307h-.401V44.18c0-.212-.023-.378-.071-.519a1.23 1.23 0 00-.189-.354.689.689 0 00-.282-.236 1.664 1.664 0 00-.308-.118 1.373 1.373 0 00-.306-.047c-.094-.023-.189-.023-.259-.023-.189 0-.354.023-.495.047a1.98 1.98 0 00-.401.095c-.105.042-.207.09-.307.14-.095.048-.165.072-.236.12v.73c.236-.142.448-.236.637-.33.188-.07.4-.118.613-.118.142 0 .259.023.354.047.117.023.189.07.236.142.047.07.094.14.118.235.023.095.023.213.023.33-.235.024-.495.048-.755.072-.282 0-.519.07-.754.14a1.2 1.2 0 00-.566.379c-.165.188-.236.424-.236.754 0 .19.023.354.094.495.047.143.142.26.26.354.117.095.236.165.401.212.38.11.785.093 1.155-.047a1.46 1.46 0 00.425-.33l.07.33zM134.545 46.09v-4.175h-.401c-.048-.093-.048-.212-.048-.306s.024-.212.048-.307h1.32v4.788h.402a.701.701 0 01.047.308c0 .094-.024.211-.047.306h-1.722c-.048-.095-.048-.212-.048-.307 0-.094.024-.212.048-.306h.401zM140.253 44.487l.684-2.123.637 2.122-1.321.001zm-1.84 1.533c-.024.118-.047.212-.047.33 0 .095 0 .212.047.33h1.84c.023-.118.047-.212.047-.33 0-.094 0-.212-.047-.33h-.495l.259-.825h1.746l.259.825h-.495a.739.739 0 00-.071.33.74.74 0 00.071.33h1.887c0-.046.023-.094.023-.165.024-.047.024-.118.024-.165 0-.047-.024-.094-.024-.165 0-.047 0-.118-.023-.165h-.425l-1.486-4.576h-1.085l-1.557 4.576h-.448zM144.003 45.382a.6.6 0 01.308-.07.46.46 0 01.165.024c.046 0 .093.023.141.07v.118a.4.4 0 00.07.236c.058.083.13.154.212.213.09.07.196.119.308.141.117.048.235.048.376.048.095 0 .165 0 .26-.024l.212-.07a.24.24 0 00.143-.12c.046-.046.046-.117.046-.188a.459.459 0 00-.047-.189.409.409 0 00-.142-.14.793.793 0 00-.283-.12c-.117-.046-.259-.07-.448-.117a2.84 2.84 0 01-.425-.118c-.141-.047-.306-.094-.424-.189-.141-.07-.236-.188-.33-.306-.095-.118-.118-.283-.118-.495 0-.213.047-.402.141-.543.095-.142.189-.26.33-.354a1.09 1.09 0 01.449-.189c.165-.047.307-.07.448-.07.236 0 .425.023.566.094.141.07.26.141.33.236v-.212c.048-.024.118-.024.165-.048.048 0 .095-.023.142-.023.095 0 .212.023.307.07v1.156a.653.653 0 01-.308.07.818.818 0 01-.306-.07v-.094a.527.527 0 00-.212-.425.86.86 0 00-.566-.188c-.236 0-.401.047-.519.118a.338.338 0 00-.124.13.338.338 0 00-.041.177c0 .07 0 .117.024.165.026.05.067.09.118.117.07.048.165.07.282.118.118.047.283.071.495.119.165.047.308.07.473.117.165.048.306.118.424.213.118.094.236.212.306.354.072.14.119.33.119.566 0 .188-.047.353-.119.495a.823.823 0 01-.306.33c-.138.087-.289.15-.448.189-.165.047-.354.07-.542.07-.142 0-.26 0-.354-.023l-.283-.071c-.095-.023-.165-.07-.236-.118l-.213-.142v.213l-.141.07c-.048.024-.118.024-.165.024-.048 0-.118 0-.165-.023-.048 0-.095-.024-.142-.07v-1.252h.047zM147.919 45.382a.596.596 0 01.307-.07c.047 0 .094 0 .165.024.047 0 .094.023.141.07v.118c0 .095.024.165.071.236.047.07.118.142.212.213.09.07.195.119.307.141.118.048.236.048.377.048.095 0 .165 0 .26-.024l.212-.07a.243.243 0 00.142-.12c.047-.046.047-.117.047-.188a.459.459 0 00-.047-.189.409.409 0 00-.142-.14.877.877 0 00-.26-.12c-.117-.046-.259-.07-.447-.117a2.775 2.775 0 01-.425-.118 1.654 1.654 0 01-.424-.189c-.143-.07-.237-.188-.33-.306-.096-.118-.119-.283-.119-.495a.97.97 0 01.142-.543c.094-.142.188-.26.33-.354a1.08 1.08 0 01.448-.189c.165-.047.306-.07.448-.07.236 0 .425.023.566.094.142.07.26.141.33.236v-.212c.048-.024.118-.024.165-.048.048 0 .095-.023.142-.023.095 0 .212.023.307.07v1.156a.652.652 0 01-.307.07.814.814 0 01-.307-.07v-.094a.527.527 0 00-.212-.425.86.86 0 00-.566-.188c-.236 0-.401.047-.519.118a.338.338 0 00-.124.13.338.338 0 00-.041.177c0 .07 0 .117.024.165.026.05.067.09.118.117.07.048.165.07.282.118.119.047.284.071.495.119.166.047.308.07.473.117.165.048.307.118.424.213.118.094.236.212.307.354.071.14.118.33.118.566 0 .188-.047.353-.118.495a.836.836 0 01-.307.33c-.138.087-.29.15-.448.189a2 2 0 01-.542.07c-.142 0-.26 0-.354-.023l-.283-.071c-.095-.023-.165-.07-.236-.118l-.213-.142v.213a1.123 1.123 0 01-.165.07c-.047.024-.117.024-.165.024-.047 0-.117 0-.165-.023-.047 0-.094-.024-.141-.07l.047-1.252zM153.132 45.996a.9.9 0 01-.259-.33 1.483 1.483 0 01-.142-.424c-.023-.142-.047-.283-.047-.402 0-.118.024-.26.047-.4.023-.142.07-.26.142-.401a.9.9 0 01.259-.33.751.751 0 01.425-.119c.165 0 .306.024.424.118s.188.213.26.33c.07.118.117.26.141.402.024.14.047.282.047.4 0 .119-.023.26-.047.401a1.318 1.318 0 01-.141.425.912.912 0 01-.26.33.748.748 0 01-.424.118.7.7 0 01-.425-.118zm1.226.637c.236-.118.425-.259.567-.448.141-.189.259-.401.33-.638.071-.235.117-.47.117-.707 0-.235-.046-.472-.117-.707a2.234 2.234 0 00-.33-.614 1.536 1.536 0 00-.567-.447c-.212-.119-.495-.165-.802-.165-.306 0-.566.046-.802.165a1.537 1.537 0 00-.565.447c-.143.166-.26.378-.33.614-.067.23-.099.468-.096.707 0 .236.024.473.095.708.071.236.189.448.33.637.142.189.33.33.566.448.212.118.495.165.803.165.275 0 .548-.055.801-.165zM159.194 46.421c-.071.047-.141.07-.236.118a1.167 1.167 0 01-.307.118c-.117.023-.235.07-.377.094a2.61 2.61 0 01-.448.048c-.307 0-.543-.048-.779-.142a1.628 1.628 0 01-.565-.425 2.183 2.183 0 01-.354-.613 2.455 2.455 0 01-.118-.731c0-.26.023-.52.094-.755a1.99 1.99 0 01.307-.637c.141-.189.306-.33.518-.448.213-.118.449-.165.732-.165.179 0 .357.04.519.118.141.07.259.165.354.283v-.26c.094-.047.212-.047.306-.047.118 0 .213.024.33.07v1.487a.944.944 0 01-.354.07.757.757 0 01-.33-.07v-.236c0-.236-.07-.424-.189-.542a.76.76 0 00-.495-.19.674.674 0 00-.401.119c-.118.07-.188.189-.259.307-.075.13-.123.275-.141.424-.024.165-.048.307-.048.472 0 .377.094.684.283.896.189.212.425.307.731.307a1.4 1.4 0 00.354-.048c.118-.023.213-.07.307-.117.094-.048.188-.095.283-.165.094-.07.189-.142.259-.213l.024.873zM161.105 42.316c.117-.094.165-.235.165-.4a.527.527 0 00-.165-.401.48.48 0 00-.378-.165c-.141 0-.259.07-.377.165-.118.094-.165.235-.165.4 0 .165.047.284.165.401a.47.47 0 00.377.165c.165 0 .283-.047.378-.165zm-1.133 3.774c-.027.1-.043.204-.047.307a.7.7 0 00.047.307h1.722c.024-.095.047-.212.047-.307 0-.094 0-.212-.047-.306h-.4V43h-1.322c-.027.1-.043.203-.047.306a.7.7 0 00.047.307h.401v2.477h-.401zM164.619 45.477a.475.475 0 01-.07.26c-.048.094-.119.142-.189.212a.646.646 0 01-.283.142c-.119.023-.212.047-.33.047-.165 0-.308-.047-.401-.142a.45.45 0 01-.104-.15.444.444 0 01-.038-.18c0-.189.047-.33.142-.448.117-.118.282-.189.519-.213l.754-.07v.542zm.118 1.203h1.18a1.41 1.41 0 00.047-.306c0-.094 0-.213-.047-.307h-.402V44.18a1.628 1.628 0 00-.07-.519 1.28 1.28 0 00-.189-.354c-.095-.094-.165-.189-.283-.236a1.642 1.642 0 00-.307-.118 1.377 1.377 0 00-.306-.047c-.095-.023-.189-.023-.26-.023-.188 0-.354.023-.495.047a1.98 1.98 0 00-.401.095c-.118.046-.212.093-.307.14-.094.048-.165.072-.235.12v.73c.235-.142.447-.236.636-.33.189-.07.402-.118.614-.118.141 0 .259.023.353.047.119.023.189.07.236.142.053.07.093.15.118.235.024.095.024.213.024.33-.236.024-.472.072-.755.072-.283 0-.519.07-.755.14a1.2 1.2 0 00-.566.379c-.165.188-.236.424-.236.754 0 .19.024.354.094.495.048.143.142.26.26.354.118.095.236.165.401.212.38.11.786.093 1.156-.047.165-.094.307-.188.424-.33l.071.33zM166.766 43.614h-.449c-.046-.118-.046-.236-.046-.33 0-.094.022-.212.046-.307h.449v-.849l.919-.472v1.321h.732a.7.7 0 01.047.307c0 .094-.024.188-.047.33h-.732v2.052c0 .165.024.26.095.33a.396.396 0 00.236.071c.094 0 .165 0 .235-.024.072-.023.165-.047.284-.117v.66c-.122.05-.249.09-.377.118-.143.023-.26.023-.354.023-.378 0-.638-.093-.803-.282-.165-.19-.235-.472-.235-.85v-1.981zM170.233 42.316c.118-.094.165-.235.165-.4a.511.511 0 00-.165-.401.464.464 0 00-.377-.165.505.505 0 00-.378.165c-.117.094-.165.235-.165.4a.52.52 0 00.165.401.471.471 0 00.378.165.466.466 0 00.377-.165zM169.1 46.09c-.027.1-.042.204-.046.307a.7.7 0 00.047.307h1.721a1.36 1.36 0 00.048-.307c0-.094 0-.212-.048-.306h-.4V43h-1.321c-.027.1-.043.203-.047.306a.7.7 0 00.047.307h.401v2.477h-.402zM172.851 45.996a.9.9 0 01-.259-.33 1.483 1.483 0 01-.142-.424 2.578 2.578 0 01-.047-.402c0-.118.024-.26.047-.4a1.37 1.37 0 01.142-.401.9.9 0 01.259-.33.753.753 0 01.425-.119c.165 0 .307.024.424.118.119.094.189.213.26.33.071.118.118.26.141.402.024.14.048.282.048.4 0 .119-.024.26-.048.401-.023.166-.07.307-.141.425a.912.912 0 01-.26.33.748.748 0 01-.424.118.813.813 0 01-.425-.118zm1.227.637c.236-.118.425-.259.566-.448.142-.189.259-.401.33-.638.071-.235.118-.47.118-.707a2.46 2.46 0 00-.118-.707 2.208 2.208 0 00-.33-.614 1.54 1.54 0 00-.566-.447c-.213-.119-.495-.165-.802-.165-.307 0-.567.046-.802.165a1.533 1.533 0 00-.566.447c-.142.166-.26.378-.33.614-.067.23-.098.468-.095.707 0 .236.023.473.095.708.07.236.188.448.33.637.141.189.33.33.566.448.212.118.495.165.802.165.33 0 .589-.07.802-.165zM176.177 46.09v-2.476h-.424c-.047-.094-.047-.212-.047-.307 0-.094.023-.212.047-.306h1.226l.024.424c.094-.118.212-.26.401-.353.189-.119.401-.165.684-.165.401 0 .708.118.92.353.212.236.307.566.307.99v1.84h.424a.7.7 0 01.047.307c0 .095-.024.212-.047.307h-1.722c-.047-.095-.047-.212-.047-.307 0-.094.023-.212.047-.306h.377v-1.746c0-.236-.047-.424-.117-.566-.072-.142-.237-.189-.449-.189-.07 0-.165.024-.259.047a.487.487 0 00-.236.142.752.752 0 00-.189.307c-.047.117-.07.282-.07.495v1.51h.377a.701.701 0 01.047.307c0 .094-.024.211-.047.306h-1.722c-.047-.095-.047-.212-.047-.307 0-.094.024-.212.047-.306h.448z" fill="#55B800"/><path d="M48.992 20.545l3.75-9.411 3.703 9.41h-7.453zM34.225 33.683h9.648l2.383-5.99h12.879l2.382 5.99H71.4L57.247.213h-8.87l-14.152 33.47zM65.48.448h10.237l7.57 21.04L90.883.448h10.049L87.463 33.92H78.9L65.48.45zM103.314.448h9.742l7.926 12.879L128.907.449h9.742v33.233h-9.177V14.601l-8.491 13.02h-.189l-8.445-12.973v19.035h-9.034l.001-33.235zM155.797 20.545l3.75-9.411 3.704 9.41h-7.454zm-14.742 13.138h9.647l2.383-5.99h12.879l2.382 5.99h9.883L164.077.213h-8.893l-14.129 33.47z" fill="#00305E"/><path d="M17.879 18.47l-1.085.259v2.028l-2.265.566V12.95c.024.047 2.312-.567 2.312-.495l-.024 3.797.968-.236c3.019-.731 4.41-2.358 4.41-3.585 0-.991-.92-1.627-2.43-1.627-.565 0-1.179.094-1.886.258l-4.364 1.039-.378.094c-.613.566-1.769.967-3.019.944a6.061 6.061 0 01-2.1-.449c-.494-.118-.943-.26-1.154-.353-.449-.143-1.652-.26-2.195-.425-.777-.236-.872-1.58.072-1.864.872-.236 1.863-.613 1.887-.637.519-.518 1.485-.518 1.722-.4.377-.118 1.037-.354 1.438-.378 1.415-.117 2.406.684 2.595.779.26.117.59.188.99.26l4.435-1.086a10.747 10.747 0 012.618-.33c2.807 0 4.624 1.415 4.624 3.585-.024 2.43-2.477 5.473-7.171 6.629zm5.401 5.802c0 1.981-2.925 4.482-6.487 5.614v1.108c-.801.19-1.414.236-2.24.543V25.78c.472-.047 1.227-.212 2.24-.519v2.053c1.227-.449 1.958-.92 2.242-1.227 1.226-.99.165-2.5-2.194-1.887l-4.317 1.038c-1.155.283-2.217.424-3.16.424-2.996 0-4.058-1.39-4.058-2.712 0-1.155.803-2.43 2.218-3.468 1.345-.99 3.208-1.816 5.401-2.335l.377-.094v2.477l-.282.07c-3.869.684-6.038 3.585-2.736 3.35.684-.047 6.44-1.203 6.44-1.203.943-.236 1.839-.354 2.617-.354 2.901.024 3.94 1.557 3.94 2.878zm-5.613 7.831c2.17 0 2.947 1.32 2.947 2.477 0 1.392-1.108 3.184-3.797 4.222v5.472s-.59 1.369-1.133 1.369c-.542 0-1.131-1.369-1.131-1.369v-1.793h-.024v-5.825c.543-.071 1.298-.26 2.265-.52v.52a7.36 7.36 0 001.061-.755c.495-.449.424-1.415-.779-1.133-.377.095-2.83 1.133-5.59 1.014-2.287-.093-3.113-1.273-3.113-2.476-.165-2.524 2.287-3.986 4.977-4.93v2.477c-2.524.825-2.76 2.406-1.298 2.358.684-.023 3.61-.802 3.61-.802.707-.188 1.391-.306 2.005-.306zM12.5 39.816c-.425 0-.731-.236-.731-.613 0-.424.448-.896 1.014-1.062.236-.093.472-.165.755-.235v1.745c-.684.142-.968.165-1.038.165zm2.052-38.189c0-.754 2.265-.754 2.265 0v5.898c-.779.14-1.51.33-2.265.565V1.627zm11.7 10.214c0-.401-.047-.778-.143-1.132L31.183.07H22.81l-2.925 6.983c-.692.03-1.379.124-2.052.282V1.63C17.832.66 16.959 0 15.662 0c-1.298 0-2.17.66-2.17 1.627v6.747l-.166.047a2.127 2.127 0 01-.424-.118l-.047-.024a6.605 6.605 0 00-1.345-.636L8.35.07H-.001l4.01 8.987a2.11 2.11 0 00-1.18 1.91c0 .99.59 1.84 1.463 2.123.377.118.873.19 1.345.26.094.023.188.023.307.047l1.981 4.41c-.401.237-.778.473-1.132.732-1.722 1.274-2.713 2.901-2.713 4.458 0 1.816 1.392 3.916 5.284 3.916.754 0 1.604-.118 2.5-.283l.425.944c-1.416.518-2.217.967-3.02 1.58-1.179.92-2.335 2.146-2.241 4.245.071 1.699 1.369 3.61 4.435 3.61.33 0 1.25-.095 2.029-.19v.118l-.685.19c-.99.282-1.981 1.037-1.957 2.146.023.92.778 1.32 1.745 1.32.07 0 .425-.023.896-.094v3.963l.095.189c.33.755 1.014 2.028 2.1 2.028 1.084 0 1.768-1.273 2.099-2.028l.094-.189v-5.095c2.782-1.25 3.845-3.137 3.845-4.812 0-1.863-1.25-3.727-4.08-3.703 3.773-1.439 6.91-4.34 6.91-6.605 0-1.58-.967-3.16-3.043-3.797l1.416-2.972c2.17-1.604 3.326-3.774 3.326-5.638z" fill="#55B800"/><path d="M177.71 1.415c.189 0 .354.047.354.283s-.165.283-.354.283h-.424v-.566h.424zm.92 1.864c-.094-.119-.59-.944-.613-.968.307-.094.448-.33.448-.613 0-.472-.33-.684-.779-.684h-.825v2.24h.425v-.919h.165c.141 0 .189.047.259.165l.425.755.495.024zm.637-1.156c0 .872-.708 1.604-1.58 1.604a1.605 1.605 0 01-1.605-1.604c0-.873.732-1.58 1.605-1.58.872 0 1.58.707 1.58 1.58zm.542.023a2.102 2.102 0 00-.619-1.503 2.108 2.108 0 00-1.503-.62 2.115 2.115 0 00-2.123 2.123 2.12 2.12 0 00.619 1.504 2.112 2.112 0 001.503.619 2.144 2.144 0 002.123-2.123z" fill="#00305E"/></g><defs><clipPath id="clip0"><path fill="#fff" d="M0 0h180v48H0z"/></clipPath></defs></svg>