<svg width="53" height="52" fill="none" xmlns="http://www.w3.org/2000/svg"><path d="M2.931 7.556c3.329-3.064 11.613-.87 18.611.378 7.036 1.211 12.862 1.514 18.839 4.54 6.014 3.026 12.218 8.852 12.597 15.017.416 6.204-5.032 12.786-11.046 16.569-5.977 3.82-12.56 4.88-18.044 3.783-5.523-1.097-9.911-4.313-13.24-8.096-3.329-3.82-5.599-8.208-7.528-14.563-1.929-6.317-3.518-14.602-.189-17.628z" fill="#D5EEF3"/><path d="M23.4 32.76V5.72a3.13 3.13 0 00-3.12-3.12H5.72A3.13 3.13 0 002.6 5.72v27.04a3.13 3.13 0 003.12 3.12h14.56a3.13 3.13 0 003.12-3.12zM4.68 5.72c0-.572.468-1.04 1.04-1.04h14.56c.572 0 1.04.468 1.04 1.04V7.8H4.68V5.72zm0 4.16h16.64v16.64H4.68V9.88zm0 22.88V28.6h7.28v2.08c0 .572.468 1.04 1.04 1.04.572 0 1.04-.468 1.04-1.04V28.6h7.28v4.16c0 .572-.468 1.04-1.04 1.04H5.72c-.572 0-1.04-.468-1.04-1.04zM46.28 16.12H31.72a3.13 3.13 0 00-3.12 3.12v27.04a3.13 3.13 0 003.12 3.12h14.56a3.13 3.13 0 003.12-3.12V19.24a3.13 3.13 0 00-3.12-3.12zm1.04 30.16c0 .572-.468 1.04-1.04 1.04H31.72c-.572 0-1.04-.468-1.04-1.04v-4.16h7.28v2.08c0 .572.468 1.04 1.04 1.04.572 0 1.04-.468 1.04-1.04v-2.08h7.28v4.16zm0-6.24H30.68V23.4h16.64v16.64zm0-18.72H30.68v-2.08c0-.572.468-1.04 1.04-1.04h14.56c.572 0 1.04.468 1.04 1.04v2.08zM37.44 5.72v3.744l-1.352-1.352a1.005 1.005 0 00-1.456 0 1.005 1.005 0 000 1.456l3.12 3.12.052.052c.156.156.364.208.52.26h.208c.26 0 .468-.104.676-.312l3.12-3.12c.208-.208.312-.468.312-.728 0-.26-.104-.52-.312-.728a1.005 1.005 0 00-1.456 0L39.52 9.464V5.72A3.13 3.13 0 0036.4 2.6h-8.84c-.572 0-1.04.468-1.04 1.04 0 .572.468 1.04 1.04 1.04h8.84c.572 0 1.04.468 1.04 1.04zM24.44 47.32H15.6c-.572 0-1.04-.468-1.04-1.04v-3.744l1.352 1.352c.416.416 1.04.416 1.456 0a1.005 1.005 0 000-1.456l-3.12-3.12-.052-.052c-.156-.156-.364-.208-.52-.26h-.208c-.26 0-.468.104-.676.312l-3.12 3.12a1.027 1.027 0 00-.312.728c0 .26.104.52.312.728.416.416 1.04.416 1.456 0l1.352-1.352v3.744a3.13 3.13 0 003.12 3.12h8.84c.572 0 1.04-.468 1.04-1.04 0-.572-.468-1.04-1.04-1.04z" fill="#050E5F" stroke="#050E5F"/></svg>