<svg width="50" height="44" fill="none" xmlns="http://www.w3.org/2000/svg"><path d="M47.526 4.257c-3.16-2.88-11.023-.817-17.666.356C23.18 5.75 17.65 6.035 11.978 8.879 6.27 11.724.38 17.2.021 22.995c-.395 5.83 4.776 12.017 10.485 15.573 5.673 3.59 11.921 4.587 17.128 3.555 5.242-1.03 9.407-4.053 12.567-7.608 3.16-3.591 5.314-7.716 7.145-13.689 1.832-5.938 3.34-13.724.18-16.569z" fill="#D5EEF3"/><path d="M40.995 5.667h-2.8V5.2c0-2.333-1.867-4.2-4.2-4.2a4.182 4.182 0 00-4.2 4.2v.467h-2.8V5.2c0-2.333-1.867-4.2-4.2-4.2a4.182 4.182 0 00-4.2 4.2v.467h-2.8V5.2c0-2.333-1.867-4.2-4.2-4.2a4.183 4.183 0 00-4.2 4.2v.467h-2.8c-1.54 0-2.8 1.26-2.8 2.8V40.2c0 1.54 1.26 2.8 2.8 2.8h36.4c1.54 0 2.8-1.26 2.8-2.8V8.467c0-1.54-1.26-2.8-2.8-2.8zM31.662 5.2a2.31 2.31 0 012.333-2.333A2.31 2.31 0 0136.328 5.2v.467h-4.667V5.2zm-11.2 0a2.31 2.31 0 012.333-2.333A2.31 2.31 0 0125.128 5.2v.467h-4.666V5.2zm-11.2 0a2.31 2.31 0 012.333-2.333A2.31 2.31 0 0113.928 5.2v.467H9.262V5.2zm32.666 35c0 .513-.42.933-.933.933h-36.4a.936.936 0 01-.933-.933V15h38.266v25.2zm0-27.067H3.662V8.467c0-.514.42-.934.933-.934h9.333V9.4c0 .513.42.933.933.933.514 0 .934-.42.934-.933V7.533h9.333V9.4c0 .513.42.933.933.933.514 0 .934-.42.934-.933V7.533h9.333V9.4c0 .513.42.933.933.933.514 0 .934-.42.934-.933V7.533h2.8c.513 0 .933.42.933.934v4.666z" fill="#050E5F" stroke="#050E5F"/><path d="M12.435 29.28l9.707 8.82c.186.14.42.233.653.233a.887.887 0 00.606-.233l9.707-8.82c2.007-1.82 2.707-4.573 1.82-7.14-.886-2.473-2.986-4.153-5.6-4.293h-.56a7.856 7.856 0 00-6.02 2.8 7.856 7.856 0 00-6.02-2.8h-.56c-2.613.186-4.713 1.82-5.6 4.293-.84 2.567-.14 5.32 1.867 7.14zm-.047-6.533c.607-1.774 2.1-2.94 3.967-3.08h.42c2.147 0 4.107 1.166 5.227 3.033.14.28.466.467.793.467.326 0 .653-.187.793-.467a6.057 6.057 0 015.227-3.033h.42c1.867.14 3.313 1.26 3.967 3.08.513 1.446.42 3.593-1.307 5.133l-9.1 8.26-9.1-8.26c-1.727-1.54-1.774-3.64-1.307-5.133z" fill="#050E5F" stroke="#050E5F"/></svg>