<svg width="53" height="52" fill="none" xmlns="http://www.w3.org/2000/svg"><path d="M2.931 7.556c3.329-3.064 11.613-.87 18.611.378 7.036 1.211 12.862 1.514 18.839 4.54 6.014 3.026 12.218 8.852 12.597 15.017.416 6.204-5.032 12.786-11.046 16.569-5.977 3.82-12.56 4.88-18.044 3.783-5.523-1.097-9.911-4.313-13.24-8.096-3.329-3.82-5.599-8.208-7.528-14.563-1.929-6.317-3.518-14.602-.189-17.628z" fill="#D5EEF3"/><path fill-rule="evenodd" clip-rule="evenodd" d="M34.769 8.269h3.234c2.608 0 4.695 2.138 4.747 4.694v32.29a4.675 4.675 0 01-4.695 4.694h-24.36A4.675 4.675 0 019 45.253v-32.29a4.675 4.675 0 014.695-4.694h3.234l.104-.47c.157-.678.783-1.2 1.513-1.2h1.774V4.565c0-.887.678-1.565 1.564-1.565h7.93c.886 0 1.564.678 1.564 1.565V6.65h1.826c.73 0 1.356.47 1.513 1.2l.052.418zm-12.884 1.46h-2.14l-.364 1.67h12.936l-.417-1.67H29.76a1.537 1.537 0 01-1.565-1.565V6.13H23.45v2.034c0 .887-.678 1.565-1.565 1.565zm16.118 37.089a1.57 1.57 0 001.565-1.565h.104v-32.29c0-.886-.678-1.565-1.565-1.565h-2.503l.26 1.252c.105.418 0 .94-.313 1.304-.26.366-.73.574-1.2.574h-16.9c-.47 0-.887-.208-1.2-.574-.313-.365-.418-.834-.313-1.304l.26-1.252h-2.503c-.887 0-1.565.678-1.565 1.565v32.29a1.57 1.57 0 001.565 1.565h24.308zm-3.286-22.43c.574 0 1.043-.47 1.043-1.044 0-.574-.47-1.043-1.043-1.043h-9.39c-.574 0-1.043.47-1.043 1.043 0 .574.47 1.043 1.043 1.043h9.39zM16.25 20.526a1.009 1.009 0 000 1.46l2.086 2.087c.209.209.47.313.73.313.261 0 .522-.104.73-.313l4.174-4.173a1.009 1.009 0 000-1.46 1.009 1.009 0 00-1.46 0l-3.443 3.442-1.357-1.356a1.009 1.009 0 00-1.46 0zm18.466 12.206c.574 0 1.043-.47 1.043-1.043 0-.574-.47-1.043-1.043-1.043h-9.39c-.574 0-1.043.47-1.043 1.043 0 .574.47 1.043 1.043 1.043h9.39zm-18.466-3.86a1.009 1.009 0 000 1.46l2.086 2.087c.209.209.47.313.73.313.261 0 .522-.104.73-.313l4.174-4.173a1.009 1.009 0 000-1.46 1.009 1.009 0 00-1.46 0l-3.443 3.443-1.357-1.357a1.009 1.009 0 00-1.46 0zM34.717 41.08c.574 0 1.043-.47 1.043-1.044 0-.574-.47-1.043-1.043-1.043h-9.39c-.574 0-1.043.47-1.043 1.043 0 .574.47 1.044 1.043 1.044h9.39zm-14.92-.313l4.174-4.174a1.009 1.009 0 000-1.46 1.009 1.009 0 00-1.46 0l-3.443 3.443-1.357-1.357a1.008 1.008 0 00-1.46 0 1.008 1.008 0 000 1.461l2.086 2.087c.209.208.47.313.73.313.261 0 .522-.105.73-.313z" fill="#050E5F"/></svg>