<svg fill="none" xmlns="http://www.w3.org/2000/svg" width="53" height="52" viewBox="0 0 53 52"><path d="M39.819 17.438c4.36 6.136 7.082 12.9 5.551 18.323-1.531 5.413-7.317 9.497-12.772 10.773-5.445 1.276-10.55-.255-16.207-2.34-5.657-2.073-11.879-4.69-14.675-10.06-2.808-5.38-2.191-13.506 2.01-19.6C7.915 8.432 15.71 4.369 22.59 5.082c6.891.723 12.878 6.232 17.228 12.357z" fill="#D5EEF3"/><path d="M47.28 2.6H29.6a3.13 3.13 0 00-3.12 3.12v1.04H6.72A3.13 3.13 0 003.6 9.88v31.2a3.13 3.13 0 003.12 3.12h14.768l-.988 3.12h-2.86c-.572 0-1.04.468-1.04 1.04 0 .572.468 1.04 1.04 1.04h18.72c.572 0 1.04-.468 1.04-1.04 0-.572-.468-1.04-1.04-1.04H33.5l-.988-3.12H47.28a3.13 3.13 0 003.12-3.12V5.72a3.13 3.13 0 00-3.12-3.12zM22.684 47.32l.988-3.12h6.656l.988 3.12h-8.632zm25.636-6.24c0 .572-.468 1.04-1.04 1.04H6.72c-.572 0-1.04-.468-1.04-1.04V39h42.64v2.08zm-31.2-14.56c3.432 0 6.24 2.808 6.24 6.24v4.16H10.88v-4.16c0-3.432 2.808-6.24 6.24-6.24zm-3.64-5.72a3.618 3.618 0 013.64-3.64 3.618 3.618 0 013.64 3.64 3.618 3.618 0 01-3.64 3.64 3.618 3.618 0 01-3.64-3.64zm34.84 16.12H25.44v-4.16c0-3.328-1.924-6.188-4.732-7.488A5.702 5.702 0 0022.84 20.8a5.704 5.704 0 00-5.72-5.72 5.704 5.704 0 00-5.72 5.72c0 1.82.832 3.432 2.132 4.472-2.808 1.3-4.732 4.16-4.732 7.488v4.16H5.68V9.88c0-.572.468-1.04 1.04-1.04h19.76v12.48a3.13 3.13 0 003.12 3.12h.52v4.16c0 .416.26.78.624.936.156.052.312.104.416.104.26 0 .468-.104.676-.26l5.928-4.94h9.516c.364 0 .728-.052 1.04-.208V36.92zm0-15.6c0 .572-.468 1.04-1.04 1.04H37.4c-.26 0-.468.104-.676.26L32.2 26.364V23.4c0-.572-.468-1.04-1.04-1.04H29.6c-.572 0-1.04-.468-1.04-1.04V5.72c0-.572.468-1.04 1.04-1.04h17.68c.572 0 1.04.468 1.04 1.04v15.6zm-4.784-9.932l-2.86-.416-1.3-2.6c-.156-.364-.52-.572-.936-.572-.416 0-.78.208-.936.572l-1.3 2.6-2.86.416c-.416.052-.728.312-.832.728-.104.364 0 .78.26 1.04l2.08 2.028-.468 2.86c-.052.416.104.78.416 1.04s.728.26 1.092.052l2.548-1.352 2.548 1.352c.156.104.312.104.468.104a1 1 0 00.624-.208 1.13 1.13 0 00.416-1.04l-.468-2.86 2.08-2.028c.26-.26.364-.676.26-1.04-.156-.364-.468-.624-.832-.676zm-3.38 2.704c-.26.26-.364.572-.312.936l.208 1.3-1.196-.624c-.156-.052-.312-.104-.468-.104-.156 0-.312.052-.468.104l-1.196.624.208-1.3a1.096 1.096 0 00-.312-.936l-.936-.936 1.3-.208a1 1 0 00.78-.572l.572-1.196.572 1.196a1 1 0 00.78.572l1.3.208-.832.936z" fill="#050E5F" stroke="#050E5F"/></svg>