<svg width="60" height="52" fill="none" xmlns="http://www.w3.org/2000/svg"><path d="M51.948 6.566c5.089 4.16 7.675 11.46 8.015 19.045.339 7.585-1.612 15.497-6.7 19.33-5.046 3.794-13.273 3.549-19.846 2-6.615-1.591-11.534-4.487-18.191-8.32C8.568 34.786.172 30.056.003 25.12c-.17-4.893 7.887-9.991 14.544-14.15C21.205 6.77 26.506 3.506 32.91 2.405c6.403-1.101 13.993-.041 19.04 4.16z" fill="#D5EEF3"/><path d="M26.88 28.548h8.32a3.13 3.13 0 003.12-3.12v-1.04a7.301 7.301 0 00-3.9-6.448c1.144-.936 1.82-2.392 1.82-3.952 0-2.86-2.34-5.2-5.2-5.2-2.86 0-5.2 2.34-5.2 5.2a5.27 5.27 0 001.82 3.952c-2.34 1.196-3.9 3.64-3.9 6.448v1.04a3.13 3.13 0 003.12 3.12zm4.16-17.68a3.13 3.13 0 013.12 3.12 3.13 3.13 0 01-3.12 3.12 3.13 3.13 0 01-3.12-3.12 3.13 3.13 0 013.12-3.12zm-5.2 13.52c0-2.86 2.34-5.2 5.2-5.2 2.86 0 5.2 2.34 5.2 5.2v1.04c0 .572-.468 1.04-1.04 1.04h-8.32c-.572 0-1.04-.468-1.04-1.04v-1.04z" fill="#050E5F" stroke="#050E5F"/><path d="M53.036 30.108l-.104-.104a6.36 6.36 0 00-5.668-1.404 17.92 17.92 0 001.456-7.072c0-9.88-7.904-17.94-17.68-17.94s-17.68 8.06-17.68 17.94c0 3.172.832 6.136 2.236 8.736h-.156l-6.24 1.04c-.832.156-1.56.572-2.028 1.248a3.1 3.1 0 00-.52 2.34L8.42 45.656a3.054 3.054 0 003.588 2.548l7.8-1.3h.416l5.772 1.352c.208.052.468.104.728.104.156 0 .312 0 .52-.052L39.1 46.332a2.836 2.836 0 001.82-1.04L53.14 31.46c.364-.312.312-.988-.104-1.352zm-37.596-8.58c0-8.736 7.02-15.86 15.6-15.86s15.6 7.124 15.6 15.86a16.03 16.03 0 01-4.056 10.66l-.52.572a17.21 17.21 0 01-2.132 1.82c-1.248-2.184-3.796-3.484-6.396-3.016l-8.164 1.352c-.208.052-.364 0-.572-.052l-4.94-2.028c-.572-.26-1.196-.416-1.82-.52a15.995 15.995 0 01-2.6-8.788zm23.868 22.516c-.156.208-.364.312-.624.364L26.88 46.332h-.416l-5.772-1.352c-.26-.052-.468-.104-.728-.104-.156 0-.312 0-.52.052l-7.8 1.3c-.572.104-1.092-.312-1.196-.884L8.68 34.58c-.052-.26 0-.572.208-.78.156-.208.416-.364.676-.416l6.24-1.04c1.092-.156 2.236-.052 3.276.364l4.94 2.028c.52.208 1.144.26 1.664.208l8.164-1.352a4.12 4.12 0 014.472 2.444l-7.592 1.248a1.015 1.015 0 00-.832 1.196c.104.572.624.936 1.196.884l8.736-1.456c.104 0 .208-.052.312-.104.104-.052.208-.156.312-.26l5.356-5.72c1.352-1.456 3.432-1.716 5.044-.78l-11.544 13z" fill="#050E5F" stroke="#050E5F"/></svg>