<svg fill="none" xmlns="http://www.w3.org/2000/svg" viewBox="0 0 60 52" width="60" height="52"><path d="M51.948 5.566c5.089 4.16 7.675 11.46 8.015 19.045.339 7.585-1.612 15.497-6.7 19.33-5.046 3.794-13.273 3.549-19.846 2-6.615-1.591-11.534-4.487-18.191-8.32C8.568 33.786.172 29.056.003 24.12c-.17-4.893 7.887-9.991 14.544-14.15C21.205 5.77 26.506 2.506 32.91 1.405c6.403-1.101 13.993-.041 19.04 4.16z" fill="#D5EEF3"/><path d="M38.592 24.96l-6.968 5.564a1 1 0 01-.624.208c-.208 0-.468-.052-.624-.208l-6.968-5.512c-2.392-2.08-4.524-4.472-4.524-8.008 0-4.368 3.588-7.956 7.956-7.956 1.508 0 2.912.416 4.16 1.144 1.248-.78 2.652-1.144 4.16-1.144 1.3 0 2.6.312 3.796.936.52.26.676.884.416 1.404-.26.52-.884.676-1.404.416a5.791 5.791 0 00-2.808-.728c-1.3 0-2.496.416-3.536 1.196-.364.26-.884.26-1.248 0-1.04-.78-2.236-1.196-3.536-1.196-3.224 0-5.876 2.652-5.876 5.876 0 2.548 1.456 4.368 3.796 6.396L31 28.34l6.292-4.94c2.288-2.028 3.744-3.796 3.744-6.396 0-.572.468-1.04 1.04-1.04.572 0 1.04.468 1.04 1.04 0 3.536-2.184 5.928-4.524 7.956zm1.612-12.792c-.468.312-.572.988-.26 1.456.156.208.312.468.468.728.208.364.572.572.936.572.156 0 .312-.052.468-.104.52-.26.728-.884.468-1.404a3.956 3.956 0 00-.624-.988c-.364-.52-.988-.624-1.456-.26zm-.676-5.044c.936.624 1.872 1.3 2.652 2.132.208.208.468.312.728.312.26 0 .52-.104.728-.312.416-.416.416-1.092 0-1.456-.936-.884-1.924-1.716-3.016-2.392-.468-.312-1.144-.156-1.456.312-.26.468-.104 1.092.364 1.404zm-6.344-2.34a14.86 14.86 0 013.328.832c.104.052.26.052.364.052.416 0 .832-.26.988-.676.208-.52-.104-1.144-.624-1.352a21.91 21.91 0 00-3.744-.936c-.572-.052-1.092.312-1.144.884-.156.624.26 1.144.832 1.196zm-7.072.572c.104 0 .208 0 .312-.052a18.73 18.73 0 013.328-.624c.572-.052.988-.52.936-1.092-.052-.572-.52-.988-1.092-.936-1.3.104-2.548.312-3.796.728a.975.975 0 00-.676 1.3c.104.416.52.676.988.676zM19.768 8.84c.26 0 .468-.104.676-.26a21.002 21.002 0 012.808-1.976c.52-.26.676-.936.416-1.404-.26-.52-.884-.676-1.404-.416a16.659 16.659 0 00-3.172 2.236c-.416.364-.468 1.04-.104 1.456.208.26.52.364.78.364zm5.72 26.052c.312 1.04.416 2.236.416 3.432v8.996c0 1.144-.936 2.08-2.08 2.08h-8.216c-.624 0-1.196-.26-1.612-.728-.416-.468-.572-1.092-.468-1.716.208-1.144.624-3.38.936-5.304.364-2.132-.416-2.912-.416-2.912l-.104-.104-.104-.104s-1.976-2.444-3.9-4.628-2.184-2.912-2.288-3.848v-.104c-.052-.208-.052-.52 0-1.404.104-1.196.312-2.444.624-3.744l2.6-10.296c.156-.728.936-1.976 2.704-2.34.52-.104.988-.052 1.352.104.468-.832.988-1.664 1.56-2.392.312-.468.988-.572 1.456-.208.468.364.572.988.208 1.456a17.174 17.174 0 00-1.612 2.652c.156.26.26.52.312.78l.052.104v7.904c.104.052.26.104.364.156 1.404.624 2.184 1.664 2.236 2.964.052 1.3.884 2.288.884 2.288l1.196 1.404c.26.26 1.872 1.82 2.86 3.224.468.52.78 1.3 1.04 2.288zm-1.612 9.568h-7.748c-.208 1.144-.416 2.184-.52 2.86h8.268v-2.86zm0-2.08v-4.056c0-1.04-.104-2.028-.364-2.912-.208-.728-.416-1.3-.728-1.664-.988-1.352-2.652-2.964-2.652-2.964l-.052-.052-1.196-1.404c-.052-.052-1.352-1.508-1.404-3.588 0-.52-.572-.884-1.04-1.092-.104-.052-.208-.052-.26-.052-.052 0-.156.052-.26.052-.104.156-.208.468-.312.624-.208.624-.26 1.508-.26 1.82v.052c-.052.364-.052 1.612.364 2.288.572 1.04 2.34 3.276 2.34 3.276.364.468.26 1.092-.208 1.456-.468.364-1.092.26-1.456-.208-.052-.104-1.82-2.392-2.496-3.536-.728-1.3-.624-3.12-.624-3.484 0-.26.052-1.456.416-2.392.052-.208.416-1.144.884-1.508.104-.104.208-.156.312-.208v-7.904c-.104-.26-.312-.78-.78-.728-.884.156-1.092.78-1.092.832l-2.6 10.296c-.312 1.144-.468 2.288-.572 3.38-.156.728-.104.936-.104.936v.156c.052.468.104.884 1.768 2.756 1.768 2.028 3.588 4.212 3.9 4.628.416.416 1.612 1.768 1.092 4.784 0 .156-.052.26-.052.416h7.436zm30.472-12.428v.104c-.104.884-.364 1.664-2.288 3.848-1.976 2.236-3.9 4.628-3.9 4.628l-.104.104-.104.104s-.78.728-.416 2.912c.312 1.924.728 4.16.936 5.304.104.624-.052 1.248-.468 1.716a2.132 2.132 0 01-1.612.728h-8.268a2.086 2.086 0 01-2.08-2.08v-8.996c0-1.248.156-2.392.416-3.432.26-.936.624-1.716 1.04-2.288 1.04-1.456 2.6-2.964 2.86-3.224l1.196-1.404c0-.052.884-.988.936-2.288.052-1.248.832-2.288 2.236-2.964.104-.052.26-.104.364-.156v-7.904l.052-.104c.052-.26.156-.52.312-.78a15.94 15.94 0 00-1.04-1.872c-.312-.468-.208-1.144.312-1.456.468-.312 1.144-.208 1.456.312l.936 1.56a2.34 2.34 0 011.352-.104c1.768.364 2.548 1.612 2.704 2.34l2.6 10.296c.312 1.248.52 2.496.624 3.744 0 .832 0 1.144-.052 1.352zM46.392 47.32c-.104-.676-.312-1.716-.52-2.86h-7.748v2.86h8.268zm5.876-18.616c-.104-1.092-.26-2.236-.572-3.38l-2.6-10.296c0-.052-.208-.624-1.092-.832-.468-.104-.728.468-.78.728v7.904c.104.052.208.104.312.208.468.364.832 1.404.884 1.508.364.936.416 2.132.416 2.392 0 .364.104 2.184-.624 3.484-.676 1.144-2.444 3.432-2.496 3.536-.364.468-.988.52-1.456.208-.468-.364-.52-.988-.208-1.456 0 0 1.768-2.288 2.34-3.276.364-.676.364-1.924.364-2.288v-.052c0-.312-.052-1.196-.26-1.82a3.495 3.495 0 00-.312-.624c-.104 0-.156 0-.26-.052-.104 0-.208 0-.26.052-.468.208-.988.572-1.04 1.092-.052 2.08-1.352 3.536-1.456 3.64l-1.248 1.456s-1.664 1.56-2.652 2.964c-.26.364-.52.936-.728 1.664-.26.884-.364 1.872-.364 2.912v4.056h7.384c0-.156-.052-.26-.052-.416-.468-3.016.676-4.42 1.092-4.784.364-.416 2.132-2.6 3.9-4.628 1.664-1.872 1.716-2.288 1.768-2.756v-.156c.052-.052.052-.26 0-.988z" fill="#050E5F" stroke="#050E5F" stroke-linecap="round"/></svg>