<svg fill="none" xmlns="http://www.w3.org/2000/svg" viewBox="0 0 53 52"><path d="M2.931 6.556c3.329-3.064 11.613-.87 18.611.378 7.036 1.211 12.862 1.514 18.839 4.54 6.014 3.026 12.218 8.852 12.597 15.017.416 6.204-5.032 12.786-11.046 16.569-5.977 3.82-12.56 4.88-18.044 3.783-5.523-1.097-9.911-4.313-13.24-8.096-3.329-3.82-5.599-8.208-7.528-14.563C1.191 17.867-.398 9.582 2.931 6.556z" fill="#D5EEF3"/><path d="M49.192 25.012l.052-.052v-.052s0-.052.052-.052c0-.052 0-.052.052-.104v-.104-.104-.104-.104-.104-.104-.104c0-.052 0-.052-.052-.104v-.052l-.052-.052-.052-.052s0-.052-.052-.052l-7.956-9.568-.052-.052c0-.052-.052-.052-.104-.104l-.052-.052c-.052 0-.052-.052-.104-.052s-.052-.052-.104-.052-.052 0-.104-.052c-.052 0-.052 0-.104-.052H11.388c-.052 0-.052 0-.104.052-.052 0-.052 0-.104.052-.052 0-.052.052-.104.052s-.052.052-.104.052-.052.052-.052.052c-.052 0-.052.052-.052.052l-.052.052-7.956 9.62s0 .052-.052.052l-.052.052-.052.052c0 .052 0 .052-.052.104v.676c0 .052 0 .052.052.104 0 0 0 .052.052.052v.052l.052.052.052.052.052.052 22.36 23.972v.052h.052l.052.052s.052 0 .052.052h.208c.052 0 .052 0 .104.052H26.364c.052 0 .052 0 .104-.052h.208s.052 0 .052-.052l.052-.052h.052v-.052l22.36-23.972v-.052l.052-.052-.052.104zM18.616 20.02a1 1 0 00.624.208c.312 0 .624-.156.832-.416l3.224-4.004h5.408l6.864 8.632H15.132l-1.716-8.58h7.228l-2.184 2.704c-.364.468-.26 1.144.156 1.456zm27.716 3.536l-7.28.728 1.508-7.644 5.772 6.916zm-9.204-.468l-5.772-7.228h7.228l-1.456 7.228zM11.44 16.64L13 24.284l-7.28-.728 5.72-6.916zm2.184 9.828l8.06 15.756L6.292 25.688l7.332.78zm21.944 3.172a1.042 1.042 0 00-1.404.468L26 46.072 15.964 26.52h21.788l7.956-.78-15.392 16.484 5.72-11.18c.26-.52.052-1.144-.468-1.404zM24.96 8.944V3.64c0-.572.468-1.04 1.04-1.04.572 0 1.04.468 1.04 1.04v5.304c0 .572-.468 1.04-1.04 1.04-.572 0-1.04-.468-1.04-1.04zM3.484 8.892a1.005 1.005 0 01.052-1.456 1.005 1.005 0 011.456.052l3.068 3.328a1.005 1.005 0 01-.052 1.456c-.208.208-.468.26-.728.26-.26 0-.572-.104-.78-.312L3.484 8.892zm40.508 3.328c-.416-.416-.468-1.04-.052-1.456l3.068-3.328a1.054 1.054 0 011.456-.052c.416.416.468 1.04.052 1.456l-3.068 3.328a1.058 1.058 0 01-.78.312c-.208.052-.468-.052-.676-.26z" fill="#050E5F"/><path d="M49.192 25.012l.052-.052v-.052m-.052.104l-22.36 23.972v.052h-.052l-.052.052c0 .052-.052.052-.052.052h-.208c-.052.052-.052.052-.104.052H25.74c-.052-.052-.052-.052-.104-.052h-.208c0-.052-.052-.052-.052-.052l-.052-.052h-.052v-.052L2.912 25.012l-.052-.052-.052-.052-.052-.052v-.052c-.052 0-.052-.052-.052-.052-.052-.052-.052-.052-.052-.104v-.104-.104-.104-.156-.104-.104c.052-.052.052-.052.052-.104l.052-.052.052-.052c.052 0 .052-.052.052-.052l7.956-9.62.052-.052s0-.052.052-.052c0 0 0-.052.052-.052s.052-.052.104-.052.052-.052.104-.052c.052-.052.052-.052.104-.052.052-.052.052-.052.104-.052H40.56c.052.052.052.052.104.052.052.052.052.052.104.052s.052.052.104.052.052.052.104.052l.052.052c.052.052.104.052.104.104l.052.052 7.956 9.568c.052 0 .052.052.052.052l.052.052.052.052v.052c.052.052.052.052.052.104V24.752c-.052.052-.052.052-.052.104-.052 0-.052.052-.052.052m-.052.104v-.052l.052-.052m-.052.104l.052-.104M18.616 20.02a1 1 0 00.624.208c.312 0 .624-.156.832-.416l3.224-4.004h5.408l6.864 8.632H15.132l-1.716-8.58h7.228l-2.184 2.704c-.364.468-.26 1.144.156 1.456zm27.716 3.536l-7.28.728 1.508-7.644 5.772 6.916zm-9.204-.468l-5.772-7.228h7.228l-1.456 7.228zM11.44 16.64L13 24.284l-7.28-.728 5.72-6.916zm2.184 9.828l8.06 15.756L6.292 25.688l7.332.78zm21.944 3.172a1.042 1.042 0 00-1.404.468L26 46.072 15.964 26.52h21.788l7.956-.78-15.392 16.484 5.72-11.18c.26-.52.052-1.144-.468-1.404zM24.96 8.944V3.64c0-.572.468-1.04 1.04-1.04.572 0 1.04.468 1.04 1.04v5.304c0 .572-.468 1.04-1.04 1.04-.572 0-1.04-.468-1.04-1.04zM3.484 8.892a1.005 1.005 0 01.052-1.456 1.005 1.005 0 011.456.052l3.068 3.328a1.005 1.005 0 01-.052 1.456c-.208.208-.468.26-.728.26-.26 0-.572-.104-.78-.312L3.484 8.892zm40.508 3.328c-.416-.416-.468-1.04-.052-1.456l3.068-3.328a1.054 1.054 0 011.456-.052c.416.416.468 1.04.052 1.456l-3.068 3.328a1.058 1.058 0 01-.78.312c-.208.052-.468-.052-.676-.26z" stroke="#050E5F" stroke-linecap="round" stroke-linejoin="round"/></svg>