<svg fill="none" xmlns="http://www.w3.org/2000/svg" viewBox="0 0 53 55"><path d="M44.13 5.809c5.787 3.832 9.111 12.043 7.82 19.004-1.29 6.92-7.272 12.512-13.06 18.339C33.104 48.978 27.513 54.96 21.843 55c-5.67.039-11.34-5.866-14.468-11.692-3.128-5.826-3.676-11.496-3.246-16.775.43-5.279 1.799-10.166 4.888-13.96 3.128-3.831 8.016-6.569 14.546-8.25 6.57-1.681 14.781-2.307 20.568 1.486z" fill="#D5EEF3"/><path d="M36.4 33.8h-4.004c.832-.572 1.56-1.3 2.184-2.08h5.46a3.13 3.13 0 003.12-3.12v-8.84C43.16 10.296 35.464 2.6 26 2.6S8.84 10.296 8.84 19.76v8.84a3.13 3.13 0 003.12 3.12h5.46c.624.78 1.352 1.508 2.184 2.08H15.6c-4.004 0-7.28 3.276-7.28 7.28v5.2a3.13 3.13 0 003.12 3.12h29.12a3.13 3.13 0 003.12-3.12v-5.2c0-4.004-3.276-7.28-7.28-7.28zm-24.44-4.16c-.572 0-1.04-.468-1.04-1.04v-8.84c0-8.32 6.76-15.08 15.08-15.08s15.08 6.76 15.08 15.08v8.84c0 .572-.468 1.04-1.04 1.04h-4.16c.052-.104.052-.156.104-.208a11.93 11.93 0 00.78-2.652c1.3-.572 2.236-1.872 2.236-3.38 0-1.404-.832-2.704-2.08-3.276V17.68c0-.572-.468-1.04-1.04-1.04-.416 0-.832-.052-1.196-.208a4.285 4.285 0 01-2.756-2.756c-.156-.364-.208-.78-.208-1.196 0-.104 0-.208-.052-.26 0-.26.052-.52.052-.78 0-.572-.468-1.04-1.04-1.04-.572 0-1.04.468-1.04 1.04v.468c-.26 2.652-2.496 4.732-5.2 4.732h-8.32c-.572 0-1.04.468-1.04 1.04v2.444C13.832 20.696 13 21.996 13 23.4c0 1.508.884 2.808 2.236 3.38.156.936.416 1.82.78 2.652.052.052.052.156.104.208h-4.16zm5.98-1.092c-.364-.884-.624-1.768-.728-2.704a1.113 1.113 0 00-.832-.936c-.78-.104-1.3-.728-1.3-1.508 0-.728.52-1.404 1.248-1.508.468-.104.832-.52.832-1.04V18.72h7.28a7.115 7.115 0 003.744-1.04 7.432 7.432 0 002.288-2.132c.468.832 1.144 1.612 1.976 2.132.728.468 1.508.78 2.392.936v2.236c0 .52.364.936.832 1.04.728.104 1.248.78 1.248 1.508 0 .78-.52 1.404-1.3 1.508a1.05 1.05 0 00-.832.936 9.45 9.45 0 01-.728 2.704A8.844 8.844 0 0126 33.8a8.844 8.844 0 01-8.06-5.252zm-1.3 11.492c.572 0 1.04.468 1.04 1.04 0 .572-.468 1.04-1.04 1.04-.572 0-1.04-.468-1.04-1.04 0-.572.468-1.04 1.04-1.04zm8.32 7.28H11.44c-.572 0-1.04-.468-1.04-1.04v-5.2c0-2.86 2.34-5.2 5.2-5.2v2.236a3.115 3.115 0 00-2.08 2.964 3.13 3.13 0 003.12 3.12 3.13 3.13 0 003.12-3.12c0-1.352-.884-2.496-2.08-2.964V35.88h2.6l4.68 6.552v4.888zm-2.132-11.44h6.344L26 40.352l-3.172-4.472zM41.6 46.28c0 .572-.468 1.04-1.04 1.04H27.04v-4.888l4.68-6.552h2.6v2.236a3.115 3.115 0 00-2.08 2.964c0 .572.468 1.04 1.04 1.04.572 0 1.04-.468 1.04-1.04 0-.572.468-1.04 1.04-1.04.572 0 1.04.468 1.04 1.04 0 .572.468 1.04 1.04 1.04.572 0 1.04-.468 1.04-1.04 0-1.352-.884-2.496-2.08-2.964V35.88c2.86 0 5.2 2.34 5.2 5.2v5.2z" fill="#050E5F" stroke="#050E5F"/></svg>