<svg fill="none" xmlns="http://www.w3.org/2000/svg" viewBox="0 0 52 55"><path d="M2.327 9.638c-3.645 5.34-2.306 13.91-.714 23.029 1.592 9.12 3.436 18.804 8.777 21.496 5.356 2.693 14.222-1.591 22.285-6.054 8.078-4.449 15.367-9.075 16.557-14.907 1.19-5.831-3.719-12.868-9.06-18.61-5.34-5.727-11.127-10.146-18.327-11.291-7.215-1.146-15.858.982-19.518 6.337z" fill="#D5EEF3"/><path d="M48.464 5.668l-1.82-.156c-1.716-.156-3.38.468-4.732 1.82-.936.884-2.028 1.352-3.068 1.248l-1.82-.156a.858.858 0 00-.78.26c-.26.156-.364.468-.364.728v13.884c-.884.312-1.56 1.04-1.924 1.924h-5.512a3.115 3.115 0 00-2.964-2.08 3.13 3.13 0 00-3.12 3.12c0 1.352.884 2.496 2.08 2.912v5.564c-.884.312-1.56 1.04-1.924 1.924h-5.564c1.456-1.56 2.288-3.588 2.288-5.72 0-2.34-.988-4.628-2.756-6.188a8.432 8.432 0 00-6.5-2.08c-3.796.416-6.864 3.484-7.332 7.28-.312 2.496.52 4.992 2.288 6.76.832.884 1.3 1.924 1.3 3.016v.104c0 1.04.624 1.976 1.56 2.34v1.248a3.13 3.13 0 003.12 3.12 3.13 3.13 0 003.12-3.12v-1.248c.936-.416 1.56-1.3 1.56-2.34 0-.364.052-.728.156-1.092h6.812a3.115 3.115 0 002.964 2.08 3.13 3.13 0 003.12-3.12c0-1.352-.884-2.496-2.08-2.964v-5.512c.884-.312 1.56-.988 1.924-1.872h5.564a3.115 3.115 0 002.964 2.08 3.13 3.13 0 003.12-3.12c0-1.352-.884-2.496-2.08-2.964v-4.42l.676.052h.52c1.508 0 3.016-.624 4.212-1.872.936-.884 2.028-1.352 3.068-1.248l1.82.156a.858.858 0 00.78-.26c.208-.208.364-.468.364-.78v-8.32c-.104-.468-.52-.936-1.04-.988zM11.96 43.42c0 .572-.468 1.04-1.04 1.04-.572 0-1.04-.468-1.04-1.04v-1.04h2.08v1.04zM9.88 30.94c0-.572.468-1.04 1.04-1.04.572 0 1.04.468 1.04 1.04 0 .572-.468 1.04-1.04 1.04-.572 0-1.04-.468-1.04-1.04zm5.46 4.42c-1.144 1.144-1.82 2.756-1.82 4.472 0 .26-.208.468-.468.468H11.96v-6.396a3.097 3.097 0 002.08-2.912 3.13 3.13 0 00-3.12-3.12 3.13 3.13 0 00-3.12 3.12c0 1.352.884 2.496 2.08 2.912v6.448H8.788a.466.466 0 01-.468-.468v-.104c0-1.612-.676-3.224-1.872-4.472a6.341 6.341 0 01-1.716-5.096c.312-2.86 2.652-5.148 5.46-5.46.26-.052.468-.052.728-.052 1.56 0 3.016.572 4.16 1.56 1.3 1.196 2.08 2.86 2.08 4.68 0 1.664-.676 3.224-1.82 4.42zm10.14 3.38c-.572 0-1.04-.468-1.04-1.04 0-.572.468-1.04 1.04-1.04.572 0 1.04.468 1.04 1.04 0 .572-.468 1.04-1.04 1.04zm0-11.44c-.572 0-1.04-.468-1.04-1.04 0-.572.468-1.04 1.04-1.04.572 0 1.04.468 1.04 1.04 0 .572-.468 1.04-1.04 1.04zm11.44 0c-.572 0-1.04-.468-1.04-1.04 0-.572.468-1.04 1.04-1.04.572 0 1.04.468 1.04 1.04 0 .572-.468 1.04-1.04 1.04zm10.4-13.416l-.676-.052c-1.716-.156-3.38.468-4.732 1.82-.936.884-2.028 1.352-3.068 1.248l-.884-.104v-6.24l.676.052c1.716.156 3.38-.468 4.732-1.82.936-.884 2.028-1.352 3.068-1.248l.884.104v6.24z" fill="#050E5F" stroke="#050E5F"/></svg>