<svg fill="none" xmlns="http://www.w3.org/2000/svg" viewBox="0 0 60 52"><path d="M51.948 7.566c5.089 4.16 7.675 11.46 8.015 19.045.339 7.585-1.612 15.497-6.7 19.33-5.046 3.794-13.273 3.549-19.846 2-6.615-1.591-11.534-4.487-18.191-8.32C8.568 35.786.172 31.056.003 26.12c-.17-4.893 7.887-9.991 14.544-14.15C21.205 7.77 26.506 4.506 32.91 3.405c6.403-1.101 13.993-.041 19.04 4.16z" fill="#D5EEF3"/><path d="M50.28 5.98H9.72A3.13 3.13 0 006.6 9.1v28.08a3.13 3.13 0 003.12 3.12h27.196l-.676 4.524c-.052.416.104.832.468 1.04.364.208.78.208 1.144 0l4.108-2.756 4.108 2.756c.156.104.364.156.572.156.208 0 .416-.052.572-.156.364-.208.52-.624.468-1.04l-.676-4.524h3.276a3.13 3.13 0 003.12-3.12V9.1a3.13 3.13 0 00-3.12-3.12zm-7.748 34.996a1.127 1.127 0 00-1.144 0l-2.704 1.82 1.04-7.02c.728.208 1.456.364 2.236.364.78 0 1.56-.104 2.236-.364l1.04 7.02-2.704-1.82zm-.572-6.916c-2.86 0-5.2-2.34-5.2-5.2 0-2.86 2.34-5.2 5.2-5.2 2.86 0 5.2 2.34 5.2 5.2 0 2.86-2.34 5.2-5.2 5.2zm-5.98-1.04H16.896c-.364-1.456-1.508-2.6-3.016-3.016v-13.78c1.456-.364 2.6-1.508 3.016-3.016h26.26c.364 1.456 1.508 2.6 3.016 3.016v6.656a7.182 7.182 0 00-4.16-1.3c-4.004 0-7.28 3.276-7.28 7.28-.052 1.56.416 2.964 1.248 4.16zm15.34 4.16c0 .572-.468 1.04-1.04 1.04h-3.588l-.52-3.432a7.195 7.195 0 003.068-5.928 7.115 7.115 0 00-1.04-3.744V15.34c0-.572-.468-1.04-1.04-1.04a2.086 2.086 0 01-2.08-2.08c0-.572-.468-1.04-1.04-1.04H15.96c-.572 0-1.04.468-1.04 1.04 0 1.144-.936 2.08-2.08 2.08-.572 0-1.04.468-1.04 1.04v15.6c0 .572.468 1.04 1.04 1.04 1.144 0 2.08.936 2.08 2.08 0 .572.468 1.04 1.04 1.04h21.736l-.468 3.12H9.72c-.572 0-1.04-.468-1.04-1.04V9.1c0-.572.468-1.04 1.04-1.04h40.56c.572 0 1.04.468 1.04 1.04v28.08z" fill="#050E5F" stroke="#050E5F"/><path d="M37.8 19.5c0-.572-.468-1.04-1.04-1.04H20.12c-.572 0-1.04.468-1.04 1.04 0 .572.468 1.04 1.04 1.04h16.64c.572 0 1.04-.468 1.04-1.04zM31.56 23.66H20.12c-.572 0-1.04.468-1.04 1.04 0 .572.468 1.04 1.04 1.04h11.44c.572 0 1.04-.468 1.04-1.04 0-.572-.468-1.04-1.04-1.04z" fill="#050E5F" stroke="#050E5F"/></svg>