<svg width="48" height="49" fill="none" xmlns="http://www.w3.org/2000/svg"><path d="M39.94 3.43c5.76 3.317 9.069 10.423 7.785 16.446-1.285 5.99-7.24 10.829-13 15.87C28.967 40.79 23.402 45.967 17.759 46c-5.643.034-11.287-5.076-14.4-10.118C.244 30.84-.3 25.933.128 21.365c.428-4.568 1.79-8.798 4.864-12.08C8.106 5.969 12.971 3.6 19.47 2.145 26.008.69 34.181.148 39.94 3.43z" fill="#D5EEF3"/><path d="M35 1H12.12A3.13 3.13 0 009 4.12v40.56a3.13 3.13 0 003.12 3.12H35a3.13 3.13 0 003.12-3.12V4.12A3.13 3.13 0 0035 1zm1.04 43.68c0 .572-.468 1.04-1.04 1.04H12.12c-.572 0-1.04-.468-1.04-1.04v-5.2h11.44v2.08c0 .572.468 1.04 1.04 1.04.572 0 1.04-.468 1.04-1.04v-2.08h11.44v5.2zm0-7.28H11.08V8.28h24.96V37.4zm0-31.2H11.08V4.12c0-.572.468-1.04 1.04-1.04H35c.572 0 1.04.468 1.04 1.04V6.2z" fill="#050E5F" stroke="#050E5F"/><path d="M16.696 21.592a6.85 6.85 0 00-.416 2.288v2.08a3.13 3.13 0 003.12 3.12h8.32a3.13 3.13 0 003.12-3.12v-2.08c0-.78-.156-1.56-.416-2.288l1.768-1.768a1.005 1.005 0 000-1.456 1.005 1.005 0 00-1.456 0l-1.456 1.404a6.089 6.089 0 00-2.08-1.56V15.56c0-.572-.468-1.04-1.04-1.04-.572 0-1.04.468-1.04 1.04v2.08H22v-2.08c0-.572-.468-1.04-1.04-1.04-.572 0-1.04.468-1.04 1.04v2.652c-.78.364-1.508.936-2.08 1.56l-1.404-1.404a1.005 1.005 0 00-1.456 0c-.416.416-.416 1.092 0 1.456l1.716 1.768zm1.664 2.288a4.172 4.172 0 014.16-4.16h2.08a4.172 4.172 0 014.16 4.16v2.08c0 .572-.468 1.04-1.04 1.04H19.4c-.572 0-1.04-.468-1.04-1.04v-2.08zM29.8 32.2H17.32c-.572 0-1.04.468-1.04 1.04 0 .572.468 1.04 1.04 1.04H29.8c.572 0 1.04-.468 1.04-1.04 0-.572-.468-1.04-1.04-1.04z" fill="#050E5F" stroke="#050E5F"/></svg>