<svg width="52" height="57" fill="none" xmlns="http://www.w3.org/2000/svg"><path d="M42.13 7.809c5.787 3.832 9.111 12.043 7.82 19.004-1.29 6.92-7.272 12.512-13.06 18.339C31.104 50.978 25.513 56.96 19.843 57c-5.67.039-11.34-5.866-14.468-11.692-3.128-5.826-3.676-11.496-3.246-16.775.43-5.279 1.799-10.166 4.888-13.96 3.128-3.831 8.016-6.569 14.546-8.25 6.57-1.681 14.781-2.307 20.568 1.486z" fill="#D5EEF3"/><path d="M48.776 28.028c-.052-.312-.208-.572-.468-.728-4.42-2.964-7.644-8.476-8.84-14.976v-.364c0-5.148-4.212-9.36-9.36-9.36H21.84c-5.148 0-9.36 4.212-9.36 9.36v.416c-1.196 6.448-4.42 12.012-8.84 14.976-.26.156-.416.416-.468.728-.052.312.052.572.26.832a28.767 28.767 0 006.708 5.616A10.283 10.283 0 007.8 41.08v5.2a3.13 3.13 0 003.12 3.12h30.16a3.13 3.13 0 003.12-3.12v-5.2c0-2.496-.884-4.784-2.34-6.604 2.496-1.508 4.732-3.432 6.708-5.616.156-.208.26-.52.208-.832zM14.56 11.96c0-4.004 3.276-7.28 7.28-7.28h8.32c4.004 0 7.28 3.276 7.28 7.28V13h-1.56a4.172 4.172 0 01-4.16-4.16c0-.572-.468-1.04-1.04-1.04-.572 0-1.04.468-1.04 1.04A4.172 4.172 0 0125.48 13H14.56v-1.04zm0 3.12h10.92c2.184 0 4.056-1.092 5.2-2.808 1.144 1.664 3.016 2.808 5.2 2.808h1.56v4.16c0 6.292-5.148 11.44-11.44 11.44s-11.44-5.148-11.44-11.44v-4.16zm14.56 17.68v1.04A3.13 3.13 0 0126 36.92a3.13 3.13 0 01-3.12-3.12v-1.04h6.24zM5.772 28.34c2.756-2.184 5.096-5.252 6.708-8.944.052 4.732 2.6 8.892 6.344 11.284H18.2c-2.444 0-4.732.884-6.5 2.288-2.184-1.248-4.16-2.808-5.928-4.628zM42.12 41.08v5.2c0 .572-.468 1.04-1.04 1.04h-4.16v-4.16c0-.572-.468-1.04-1.04-1.04-.572 0-1.04.468-1.04 1.04v4.16H18.2v-4.16c0-.572-.468-1.04-1.04-1.04-.572 0-1.04.468-1.04 1.04v4.16h-5.2c-.572 0-1.04-.468-1.04-1.04v-5.2c0-4.576 3.744-8.32 8.32-8.32h2.6v1.04c0 2.86 2.34 5.2 5.2 5.2 2.86 0 5.2-2.34 5.2-5.2v-1.04h2.6c4.576 0 8.32 3.744 8.32 8.32zm-1.82-8.112c-1.768-1.404-4.056-2.288-6.5-2.288h-.624c3.744-2.34 6.24-6.552 6.344-11.284 1.612 3.64 3.9 6.76 6.708 8.944-1.768 1.82-3.744 3.38-5.928 4.628z" fill="#050E5F" stroke="#050E5F"/><path d="M26 27.56c2.392 0 4.42-1.612 5.044-3.9.156-.572-.208-1.144-.728-1.248-.572-.156-1.144.208-1.248.728 0 .104-.052.156-.104.26-.416 1.248-1.612 2.08-2.912 2.08-1.3 0-2.496-.832-2.912-2.08-.052-.104-.052-.156-.104-.26-.156-.572-.728-.884-1.248-.728-.572.156-.884.728-.728 1.248.52 2.288 2.548 3.9 4.94 3.9z" fill="#050E5F" stroke="#050E5F"/></svg>