<svg width="51" height="40" fill="none" xmlns="http://www.w3.org/2000/svg"><path d="M47.87 1.473c-3.183-2.9-11.104-.824-17.794.358-6.727 1.146-12.297 1.433-18.011 4.298C6.315 8.994.383 14.509.02 20.346c-.397 5.873 4.81 12.104 10.561 15.686 5.714 3.617 12.007 4.62 17.251 3.58 5.28-1.038 9.476-4.082 12.658-7.663 3.183-3.617 5.353-7.771 7.197-13.788 1.845-5.98 3.364-13.823.181-16.688z" fill="#D5EEF3"/><path d="M46.996 13.8h-2.08V6.52a3.13 3.13 0 00-3.12-3.12h-30.16a3.13 3.13 0 00-3.12 3.12V8.6h-2.08a3.13 3.13 0 00-3.12 3.12v14.56a3.13 3.13 0 003.12 3.12h7.28v2.08a3.13 3.13 0 003.12 3.12h30.16a3.13 3.13 0 003.12-3.12V16.92a3.13 3.13 0 00-3.12-3.12zm-5.2-8.32c.572 0 1.04.468 1.04 1.04v3.016A5.238 5.238 0 0138.78 5.48h3.016zm-31.2 1.04c0-.572.468-1.04 1.04-1.04h3.016a5.238 5.238 0 01-4.056 4.056V6.52zm0 5.096c3.172-.416 5.72-2.964 6.136-6.136h19.916c.468 3.172 3.016 5.72 6.188 6.136v4.316c-3.172.468-5.72 3.016-6.136 6.188H16.732c-.416-3.172-2.964-5.72-6.136-6.136v-4.368zm32.24 6.448v3.016c0 .572-.468 1.04-1.04 1.04H38.78a5.238 5.238 0 014.056-4.056zm-32.24 0a5.238 5.238 0 014.056 4.056h-3.016c-.572 0-1.04-.468-1.04-1.04v-3.016zm-4.16 9.256c-.572 0-1.04-.468-1.04-1.04V11.72c0-.572.468-1.04 1.04-1.04h2.08v10.4a3.13 3.13 0 003.12 3.12h26v2.08c0 .572-.468 1.04-1.04 1.04H6.436zm41.6 4.16c0 .572-.468 1.04-1.04 1.04h-30.16c-.572 0-1.04-.468-1.04-1.04V29.4h20.8a3.13 3.13 0 003.12-3.12V24.2h2.08a3.13 3.13 0 003.12-3.12v-5.2h2.08c.572 0 1.04.468 1.04 1.04v14.56zM26.716 19c2.86 0 5.2-2.34 5.2-5.2 0-2.86-2.34-5.2-5.2-5.2-2.86 0-5.2 2.34-5.2 5.2 0 2.86 2.34 5.2 5.2 5.2zm0-8.32a3.13 3.13 0 013.12 3.12 3.13 3.13 0 01-3.12 3.12 3.13 3.13 0 01-3.12-3.12 3.13 3.13 0 013.12-3.12z" fill="#050E5F" stroke="#050E5F"/></svg>