<svg fill="none" xmlns="http://www.w3.org/2000/svg" viewBox="0 0 52 53"><path d="M50.069 11.556c-3.329-3.064-11.613-.87-18.612.378-7.035 1.21-12.861 1.513-18.838 4.54C6.604 19.5.401 25.325.022 31.49c-.416 6.204 5.032 12.786 11.046 16.569 5.977 3.82 12.56 4.88 18.044 3.782 5.523-1.097 9.911-4.312 13.24-8.095 3.329-3.82 5.599-8.208 7.528-14.563 1.929-6.318 3.518-14.602.189-17.628z" fill="#D5EEF3"/><path d="M44.356 40.3l-.468-.104-.364-.52c.78-.624 1.352-1.508 1.664-2.496.988-.312 1.716-1.248 1.716-2.392 0-.936-.468-1.716-1.196-2.132.104-.676.104-1.404-.052-1.976a6.095 6.095 0 00-1.404-2.548c-.364-7.332-5.096-13.572-11.7-16.068.208-.364.312-.78.312-1.196 0-.936-.468-1.716-1.196-2.132.104-.676.104-1.404-.052-1.976-.676-2.444-2.86-4.16-5.356-4.16h-.78c-1.456 0-2.86.572-3.9 1.664-1.092 1.144-1.508 2.756-1.248 4.472a2.535 2.535 0 00-1.248 2.184c0 .468.104.884.312 1.248C13 14.664 8.32 20.748 7.852 27.924c-.104.104-.208.156-.26.26-1.092 1.144-1.508 2.756-1.248 4.472a2.535 2.535 0 00-1.248 2.184c0 1.092.728 2.028 1.716 2.392.312 1.04.936 1.872 1.716 2.548l-.416.468-.416.052c-2.444.364-4.888 2.184-4.888 5.096v2.964c0 .572.468 1.04 1.04 1.04h16.276c.572 0 1.04-.468 1.04-1.04v-1.716c1.56.416 3.172.676 4.836.676 1.664 0 3.328-.26 4.836-.676v1.716c0 .572.468 1.04 1.04 1.04h16.276c.572 0 1.04-.468 1.04-1.04v-2.964c.052-2.86-2.444-4.732-4.836-5.096zm-.208-5.876s.052 0 0 0h.208c.208 0 .416.208.416.416a.447.447 0 01-.416.416h-.052c-.52 0-.936.364-1.04.884-.26 1.612-1.664 2.808-3.276 2.808-1.612 0-3.016-1.196-3.276-2.808-.104-.52-.52-.884-1.04-.884h-.052a.447.447 0 01-.416-.416c0-.208.208-.416.416-.416.104 0 2.34 0 5.148-1.612.624.624 1.664 1.352 3.38 1.612zm-.572-3.172c.052.208.052.572 0 .884-1.248-.416-1.612-1.144-1.612-1.144-.104-.26-.364-.468-.676-.572a1.048 1.048 0 00-.884.104c-1.664 1.092-3.12 1.508-4.004 1.664-.104-.884 0-1.924.676-2.6a3.27 3.27 0 012.392-1.04h.728c1.612.052 2.964 1.144 3.38 2.704zM23.088 5.72a3.27 3.27 0 012.392-1.04h.728c1.56 0 2.912 1.092 3.276 2.652.052.208.052.572 0 .884-1.248-.416-1.612-1.144-1.612-1.144-.104-.26-.364-.468-.676-.572a1.048 1.048 0 00-.884.104c-1.664 1.092-3.12 1.508-4.004 1.664 0-.832.104-1.82.78-2.548zm-1.508 4.784c.104 0 2.34 0 5.148-1.612.624.624 1.664 1.3 3.38 1.612h.208c.208 0 .416.208.416.416a.447.447 0 01-.416.416h-.052c-.52 0-.936.364-1.04.884-.26 1.612-1.664 2.756-3.276 2.756-1.612 0-3.016-1.196-3.276-2.756-.104-.52-.52-.884-1.04-.884h-.052a.447.447 0 01-.416-.416c0-.208.208-.416.416-.416zm2.34 6.968l.52-.624c.468.156.988.208 1.56.208a5.86 5.86 0 001.664-.26l.416.624L26 20.176l-2.08-2.704zm1.04 4.784V23.4h-6.084v-1.924c0-1.664 1.56-2.808 3.12-3.016l2.964 3.796zm2.08 0l2.86-3.796h.052c1.56.208 3.12 1.3 3.12 3.016V23.4H27.04v-1.144zM9.048 29.64a3.27 3.27 0 012.392-1.04h.728c1.56 0 2.912 1.092 3.276 2.652.052.208.052.572 0 .884-1.248-.416-1.612-1.144-1.612-1.144-.104-.26-.364-.468-.676-.572-.312-.104-.624-.052-.832.104-1.664 1.092-3.172 1.508-4.004 1.664-.052-.832.052-1.82.728-2.548zm-1.404 5.616h-.052a.447.447 0 01-.416-.416c0-.208.208-.416.416-.416.104 0 2.34 0 5.148-1.612.624.624 1.664 1.3 3.38 1.612h.208c.208 0 .416.208.416.416a.447.447 0 01-.416.416h-.052c-.52 0-.936.364-1.04.884-.26 1.612-1.664 2.808-3.276 2.808-1.612 0-3.016-1.196-3.276-2.808-.104-.52-.572-.884-1.04-.884zM10.92 47.32H4.836v-1.924c0-1.664 1.56-2.808 3.12-3.016l2.912 3.796v1.144h.052zm-1.04-5.928l.52-.624c.468.156.988.208 1.56.208a5.86 5.86 0 001.664-.26l.416.624-2.08 2.756-2.08-2.704zm9.204 5.928H13v-1.144l2.86-3.796h.052c1.56.208 3.12 1.3 3.12 3.016v1.924h.052zm11.856-2.86c-1.56.52-3.224.78-4.94.78-1.716 0-3.38-.26-4.94-.78-.468-2.34-2.652-3.848-4.784-4.16l-.468-.104-.364-.52c.78-.624 1.352-1.508 1.664-2.496.988-.312 1.716-1.248 1.716-2.392 0-.936-.468-1.716-1.196-2.132.104-.676.104-1.404-.052-1.976-.624-2.496-2.808-4.212-5.304-4.212h-.832a4.38 4.38 0 00-1.404.208c.936-6.084 5.252-11.024 10.92-12.896a5.631 5.631 0 001.56 2.08l-.416.468-.416.052c-2.444.364-4.888 2.184-4.888 5.096v2.964c0 .572.468 1.04 1.04 1.04h16.276c.572 0 1.04-.468 1.04-1.04v-2.964c0-2.86-2.496-4.732-4.888-5.096l-.468-.104-.364-.52c.624-.52 1.144-1.248 1.508-2.028 5.772 1.872 10.14 6.916 11.024 13.052a5.86 5.86 0 00-1.664-.26h-.78c-1.456 0-2.86.572-3.9 1.664-1.092 1.144-1.508 2.756-1.248 4.472a2.535 2.535 0 00-1.248 2.184c0 1.092.728 2.028 1.716 2.392.312 1.04.936 1.872 1.716 2.548l-.416.468-.416.052c-2.132.312-4.316 1.82-4.784 4.16zM39 47.32h-6.084v-1.924c0-1.664 1.56-2.808 3.12-3.016l2.912 3.796v1.144H39zm-1.04-5.928l.52-.624c.468.156.988.208 1.56.208a5.86 5.86 0 001.664-.26l.416.624-2.08 2.756-2.08-2.704zm9.204 5.928H41.08v-1.144l2.86-3.796h.052c1.56.208 3.12 1.3 3.12 3.016v1.924h.052z" fill="#050E5F" stroke="#050E5F"/></svg>