<svg fill="none" xmlns="http://www.w3.org/2000/svg" viewBox="0 0 52 52"><path d="M41.186 8.738c5.216 4.33 8.485 12.414 6.164 17.867-2.333 5.465-10.244 8.297-18.117 12.626-7.873 4.343-15.696 10.182-20.824 8.46C3.281 45.981.861 36.686.187 28.501c-.674-8.185.412-15.26 4.28-19.29 3.867-4.017 10.543-4.99 17.455-5.177 6.9-.2 14.061.374 19.264 4.704z" fill="#D5EEF3"/><path d="M49.088 25.012L44.46 5.824c-.52-2.236-2.808-3.588-5.044-3.068-1.092.26-1.976.936-2.6 1.872a4.271 4.271 0 00-.624 2.236l-23.712 8.84-2.964.728c-1.664.416-2.704 2.08-2.288 3.744l-2.028.468c-.832.208-1.508.676-1.924 1.404-.416.728-.572 1.56-.364 2.34l.728 3.068c.208.832.676 1.508 1.404 1.924.52.312 1.04.468 1.612.468.26 0 .52-.052.728-.104l2.028-.468c.208.832.676 1.508 1.404 1.924.52.312 1.04.468 1.612.468.26 0 .52-.052.728-.104l2.964-.728 3.952-.468a5.917 5.917 0 001.664 2.652L15.6 47.944c-.208.52.052 1.144.572 1.352.104.052.26.052.416.052.416 0 .78-.26.988-.624l6.032-14.56c.468.208.936.364 1.456.468v13.624c0 .572.468 1.04 1.04 1.04.572 0 1.04-.468 1.04-1.04V34.632c.52-.104 1.04-.26 1.456-.468l6.032 14.56c.156.416.572.624.988.624.156 0 .26 0 .416-.052.52-.208.78-.832.572-1.352L30.316 33.02c1.092-1.04 1.82-2.496 1.924-4.056l9.048-1.092a4.355 4.355 0 001.56 1.664 4.05 4.05 0 002.132.624c.312 0 .676-.052.988-.104 2.288-.572 3.64-2.808 3.12-5.044zM6.916 27.716c-.26.052-.572 0-.78-.104-.26-.156-.416-.364-.468-.624L4.94 23.92c-.052-.26 0-.572.104-.78.156-.26.364-.416.624-.468l2.028-.468 1.196 5.044-1.976.468zm5.772 1.82c-.26.052-.572 0-.78-.104-.26-.156-.416-.364-.468-.624l-.26-1.04-1.976-8.06a.997.997 0 01.78-1.248l2.028-.468 2.704 11.128-2.028.416zm13.364 3.12a4.172 4.172 0 01-4.16-4.16 4.172 4.172 0 014.16-4.16 4.172 4.172 0 014.16 4.16 4.172 4.172 0 01-4.16 4.16zm6.032-5.772c-.728-2.652-3.12-4.628-6.032-4.628-3.38 0-6.136 2.704-6.24 6.084l-3.068.364-2.704-11.388 22.568-8.424 4.108 16.9-8.632 1.092zM45.5 28.028c-.52.156-1.092.052-1.56-.26-.468-.312-.832-.728-.936-1.3L38.376 7.28c-.104-.52-.052-1.092.26-1.56.26-.468.728-.78 1.3-.936.156-.052.312-.052.468-.052.936 0 1.82.624 2.028 1.612l4.628 19.188a2.076 2.076 0 01-1.56 2.496z" fill="#050E5F" stroke="#050E5F"/></svg>