<svg fill="none" xmlns="http://www.w3.org/2000/svg" viewBox="0 0 52 52"><path d="M50.069 7.556c-3.329-3.064-11.613-.87-18.612.378-7.035 1.21-12.861 1.513-18.838 4.54C6.604 15.5.401 21.325.022 27.49c-.416 6.204 5.032 12.786 11.046 16.569 5.977 3.82 12.56 4.88 18.044 3.782 5.523-1.097 9.911-4.312 13.24-8.095 3.329-3.82 5.599-8.208 7.528-14.563 1.929-6.318 3.518-14.602.189-17.628z" fill="#D5EEF3"/><path d="M46.124 21.112l1.716-1.976c1.144-1.3.988-3.276-.312-4.42l-.832-.676c-.624-.52-1.456-.832-2.288-.728-.832.052-1.612.416-2.132 1.092l-1.612 1.872a16.579 16.579 0 00-4.784-1.82V10.92A3.13 3.13 0 0039 7.8V6.76a3.13 3.13 0 00-3.12-3.12H28.6a3.13 3.13 0 00-3.12 3.12V7.8a3.13 3.13 0 003.12 3.12v3.536c-1.664.364-3.224.936-4.68 1.768l-1.56-1.82a3.059 3.059 0 00-2.132-1.092 3.274 3.274 0 00-2.288.728l-.78.728c-1.3 1.144-1.456 3.12-.312 4.42l1.612 1.872c-.884 1.196-1.612 2.548-2.184 3.952H7.28c-.572 0-1.04.468-1.04 1.04 0 .572.468 1.04 1.04 1.04h8.32c-.26.988-.416 2.028-.468 3.12H3.64c-.572 0-1.04.468-1.04 1.04 0 .572.468 1.04 1.04 1.04h11.492c.052 1.092.208 2.132.468 3.12H7.28c-.572 0-1.04.468-1.04 1.04 0 .572.468 1.04 1.04 1.04h8.996c.416 1.092.988 2.132 1.612 3.12H10.4c-.572 0-1.04.468-1.04 1.04 0 .572.468 1.04 1.04 1.04h9.048c3.12 3.536 7.696 5.72 12.792 5.72 9.464 0 17.16-7.696 17.16-17.16 0-3.796-1.196-7.28-3.276-10.14zm-2.236-5.356c.156-.208.416-.312.728-.364.26 0 .52.052.78.26l.78.676c.416.364.468 1.04.104 1.456L44.824 19.5a17.63 17.63 0 00-2.34-2.08l1.404-1.664zM27.56 7.8V6.76c0-.572.468-1.04 1.04-1.04h7.28c.572 0 1.04.468 1.04 1.04V7.8c0 .572-.468 1.04-1.04 1.04H28.6c-.572 0-1.04-.468-1.04-1.04zm6.24 3.12v3.172c-.52-.052-1.04-.052-1.56-.052s-1.04 0-1.56.052V10.92h3.12zm-15.392 6.864c-.364-.416-.312-1.092.104-1.456l.78-.676c.416-.364 1.092-.312 1.456.104l1.352 1.56a17.63 17.63 0 00-2.34 2.08l-1.352-1.612zM32.24 46.28c-8.32 0-15.08-6.76-15.08-15.08s6.76-15.08 15.08-15.08 15.08 6.76 15.08 15.08-6.76 15.08-15.08 15.08z" fill="#050E5F" stroke="#050E5F"/><path d="M32.24 19.24c-6.605 0-11.96 5.356-11.96 11.96 0 6.604 5.355 11.96 11.96 11.96 6.603 0 11.96-5.356 11.96-11.96 0-6.604-5.357-11.96-11.96-11.96zm1.04 21.788V38.48c0-.572-.469-1.04-1.04-1.04-.573 0-1.04.468-1.04 1.04v2.548c-4.629-.468-8.32-4.16-8.789-8.788h2.548c.572 0 1.04-.468 1.04-1.04 0-.572-.468-1.04-1.04-1.04h-2.548c.468-4.628 4.16-8.32 8.788-8.788v2.548c0 .572.468 1.04 1.04 1.04.572 0 1.04-.468 1.04-1.04v-2.548c4.628.468 8.32 4.16 8.788 8.788H39.52c-.572 0-1.04.468-1.04 1.04 0 .572.468 1.04 1.04 1.04h2.548c-.468 4.628-4.16 8.32-8.788 8.788z" fill="#050E5F" stroke="#050E5F"/><path d="M35.671 26.312l-2.08 2.08a3.034 3.034 0 00-1.352-.312 3.13 3.13 0 00-3.12 3.12 3.13 3.13 0 003.12 3.12 3.13 3.13 0 003.12-3.12c0-.468-.104-.936-.312-1.352l2.08-2.08a1.005 1.005 0 000-1.456 1.005 1.005 0 00-1.456 0zM32.24 32.24c-.572 0-1.04-.468-1.04-1.04 0-.572.468-1.04 1.04-1.04.572 0 1.04.468 1.04 1.04 0 .572-.468 1.04-1.04 1.04z" fill="#050E5F" stroke="#050E5F"/></svg>