<svg fill="none" xmlns="http://www.w3.org/2000/svg" viewBox="0 0 60 53"><path d="M51.13 3.809c5.787 3.832 9.111 12.043 7.82 19.004-1.29 6.92-7.272 12.512-13.06 18.339C40.104 46.978 34.513 52.96 28.843 53c-5.67.039-11.34-5.866-14.468-11.692-3.128-5.826-3.676-11.496-3.246-16.775.43-5.279 1.799-10.166 4.888-13.96 3.128-3.831 8.016-6.569 14.546-8.25C37.132.642 45.343.016 51.13 3.81z" fill="#D5EEF3"/><path d="M47.32 11.7h-10.4v-1.04c0-3.432-2.808-6.24-6.24-6.24h-9.36c-3.432 0-6.24 2.808-6.24 6.24v1.04H4.68c-1.144 0-2.08.936-2.08 2.08v12.48c0 1.352.884 2.496 2.08 2.912V45.5c0 1.144.936 2.08 2.08 2.08h38.48c1.144 0 2.08-.936 2.08-2.08V29.172a3.097 3.097 0 002.08-2.912V13.78c0-1.144-.936-2.08-2.08-2.08zm-30.16-1.04a4.172 4.172 0 014.16-4.16h9.36a4.172 4.172 0 014.16 4.16v1.04H17.16v-1.04zM45.24 45.5H6.76V29.38h2.08v11.96c0 1.144.936 2.08 2.08 2.08h7.28c1.144 0 2.08-.936 2.08-2.08V29.38h1.56v.52c0 1.144.936 2.08 2.08 2.08h4.16c1.144 0 2.08-.936 2.08-2.08v-.52h1.56v11.96c0 1.144.936 2.08 2.08 2.08h7.28c1.144 0 2.08-.936 2.08-2.08V29.38h2.08V45.5zm-34.32-4.16V29.38h7.28v11.96h-7.28zm13-11.44v-4.16h4.16v4.16h-4.16zm9.88 11.44V29.38h7.28v11.96H33.8zm13.52-15.08c0 .572-.468 1.04-1.04 1.04H30.16v-1.56c0-1.144-.936-2.08-2.08-2.08h-4.16c-1.144 0-2.08.936-2.08 2.08v1.56H5.72c-.572 0-1.04-.468-1.04-1.04V13.78h8.58v5.72c0 .572.468 1.04 1.04 1.04.572 0 1.04-.468 1.04-1.04v-5.72h21.32v5.72c0 .572.468 1.04 1.04 1.04.572 0 1.04-.468 1.04-1.04v-5.72h8.58v12.48zm-31.98-3.328v.208c0 .26-.104.52-.312.728-.052.052-.104.104-.156.104-.052.052-.104.052-.156.104-.052 0-.104.052-.208.052H14.3c-.26 0-.52-.104-.728-.312a1.027 1.027 0 01-.312-.728v-.208c0-.052.052-.104.052-.208 0-.052.052-.104.104-.156.052-.052.052-.104.104-.156.364-.364 1.092-.364 1.456 0 .052.052.104.104.104.156.052.052.052.104.104.156.104.156.104.208.156.26zm23.088-.52c.208.208.312.468.312.728 0 .26-.104.52-.312.728a1.027 1.027 0 01-.728.312h-.208c-.052 0-.156-.052-.208-.052-.052 0-.104-.052-.156-.104-.052-.052-.104-.052-.156-.104a1.027 1.027 0 01-.312-.728c0-.26.104-.52.312-.728.052-.052.104-.104.156-.104.052 0 .104-.052.156-.104.052 0 .104-.052.208-.052.364-.156.728-.052.936.208z" fill="#050E5F" stroke="#050E5F"/></svg>