<svg width="48" height="64" viewBox="0 0 48 64" fill="none" xmlns="http://www.w3.org/2000/svg">
<path d="M18.7087 46.8845V24.1073L11.2271 27.0999C11.2271 27.0999 9.39829 30.9238 9.73081 36.5766C9.89707 41.0655 12.5572 46.2195 14.5523 48.5471L18.7087 46.8845ZM38.8258 0C40.4884 0.166257 43.3147 0.997543 45.3098 2.66011C47.4712 4.6552 47.9699 7.81408 47.3049 10.6405C46.6399 13.1343 45.8086 14.4644 43.1485 16.2932C40.4884 18.122 38.4933 18.2883 38.4933 18.2883V29.2612L43.6473 33.2514L38.4933 37.9066V52.8698C38.4933 52.8698 42.816 49.3784 46.1411 42.5618C46.1411 42.5618 46.3074 42.2293 46.6399 41.398C46.9724 43.2268 46.8061 47.0508 44.6448 51.706C42.9822 55.3636 40.1559 58.6888 36.3319 60.6838C29.8479 64.1752 24.8602 64.5078 19.7062 63.5102C13.5547 62.3464 7.90198 59.0213 4.24432 53.2023C1.58421 49.0458 0.42041 44.3906 0.42041 39.2367C0.586667 29.095 8.40075 20.4496 17.3786 17.1245C18.5424 16.792 18.8749 16.4595 20.3713 16.2932C19.7062 16.792 18.8749 17.2907 17.8774 17.9558C15.051 19.7846 12.5572 23.4422 11.3934 26.2686L28.6841 18.7871V42.2293L14.8848 49.0458C16.5473 51.2072 21.3688 54.3661 25.5252 54.8648C32.508 55.6961 37.1632 53.036 37.1632 53.036V37.7404L32.0093 33.2514L37.1632 29.2612V18.2883C34.1706 17.9558 30.0142 16.6257 28.0191 16.1269C24.8602 15.4619 14.5523 12.6355 12.8897 12.303C11.2271 12.1368 9.23204 12.1368 8.06824 13.1343C6.90444 14.1319 6.07315 16.1269 6.57192 17.7895C6.90444 18.7871 7.56947 19.2858 8.06824 19.7846C8.06824 19.7846 7.40321 19.7846 6.40567 19.1196C4.41058 17.9558 2.91427 15.7944 2.74801 12.9681C2.65094 11.2282 2.99652 9.49214 3.75247 7.9221C4.50842 6.35205 5.65005 4.99927 7.07069 3.99017C9.73081 2.3276 12.7234 1.33006 16.2148 1.82883C21.3688 2.49386 28.1853 5.32023 34.3369 6.81654C36.6645 7.31531 38.4933 7.48157 40.1559 6.65028C40.9871 6.15151 42.3172 4.6552 41.1534 2.82637C39.8233 0.665028 37.3295 0.665028 35.1681 0.332514C37.1632 -3.22065e-07 37.4957 0 38.8258 0Z" fill="#050E5F"/>
</svg>
