<svg width="200" height="29" viewBox="0 0 200 29" fill="none" xmlns="http://www.w3.org/2000/svg">
<path d="M200 18.3001C200 12.5668 196.067 9.13342 190.833 9.13342C185.633 9.13342 181.467 12.8668 181.467 18.6001C181.467 24.3334 185.633 28.1668 190.833 28.1668C192.767 28.1668 194.333 27.8334 196.267 26.8001C198.2 25.7334 199.567 23.5001 199.767 22.1001H195.933C194.967 23.8001 193.267 24.6668 190.933 24.6668C187.733 24.6668 185.4 22.1001 185.4 19.7668H199.867C200 19.1334 200 18.7001 200 18.3001ZM185.4 16.4668C185.933 14.1334 187.833 12.5334 190.6 12.5334C193.367 12.5334 195.6 14.1334 195.933 16.4668H185.4Z" fill="#050E5F"/>
<path d="M14.5667 21.0666C13.7333 23 11.8 24.2666 9.56667 24.2666C6.6 24.2666 4.03333 21.8333 4.03333 18.7333C4.03333 15.7666 6.46667 13.2 9.56667 13.2C11.8 13.2 13.7333 14.5666 14.5667 16.5H18.8333C17.8667 12.2333 14.0333 9.16663 9.56667 9.16663C4.36667 9.16663 0 13.4333 0 18.7333C0 24.0666 4.26667 28.3 9.56667 28.3C14.0333 28.3 17.7667 25.2 18.8333 21.0666H14.5667Z" fill="#050E5F"/>
<path d="M34.0668 9.96676C32.9001 9.43342 31.6335 9.13342 30.2335 9.13342C28.8668 9.13342 27.5668 9.56676 26.4001 10.3001V9.76675H22.4668V17.8668V27.5668H26.4001V19.0668C26.4001 17.4668 26.4001 16.4001 26.6001 15.6668V15.5668C26.8001 14.8334 27.2335 14.3001 28.1001 13.7668C28.6335 13.4334 29.2668 13.1334 30.2335 13.1334C31.2001 13.1334 31.7335 13.3334 32.3668 13.7668L34.0668 9.96676Z" fill="#050E5F"/>
<path d="M48.9667 9.76672V18.2667C48.9667 19.8667 48.9667 20.9334 48.7667 21.6667V21.7667C48.5667 22.5001 48.1334 23.0334 47.2667 23.5667C46.7334 23.9001 46.1 24.2001 45.1334 24.2001C44.1667 24.2001 43.6334 24.0001 43 23.5667C42.2667 23.0334 41.8334 22.6001 41.5 21.7667V21.6667C41.3 20.9334 41.3 19.8667 41.3 18.2667V9.76672H37.3667V19.4667C37.3667 21.6001 37.4667 22.5667 38 24.1667C38.5334 25.5667 39.7 26.7334 41.2 27.3667C42.3667 27.9001 43.6334 28.2334 45.0334 28.2334C46.4334 28.2334 47.7 27.8001 48.8667 27.0667V27.6001H52.8V19.5001V9.76672H48.9667Z" fill="#050E5F"/>
<path d="M61.6331 27.5333V19.0333C61.6331 17.4333 61.6331 16.3667 61.8331 15.6333V15.5333C62.0331 14.8 62.4665 14.2667 63.3331 13.7333C63.8665 13.4 64.4998 13.1 65.4665 13.1C66.4331 13.1 66.9665 13.3 67.5998 13.7333C68.3331 14.2667 68.7665 14.7 69.0998 15.5333V15.6333C69.2998 16.3667 69.2998 17.4333 69.2998 19.0333V27.5333H73.2331V17.8333C73.2331 15.7 73.1331 14.7333 72.5998 13.1333C72.0665 11.7667 70.8998 10.5667 69.3998 9.93332C68.2331 9.39999 66.9665 9.06665 65.5665 9.06665C64.1665 9.06665 62.8998 9.49998 61.7331 10.2333V9.76665H57.7998V17.8666V27.5667H61.6331V27.5333Z" fill="#050E5F"/>
<path d="M91.3333 21.0666C90.4999 23 88.5666 24.2666 86.3333 24.2666C83.3666 24.2666 80.7999 21.8333 80.7999 18.7333C80.7999 15.7666 83.2333 13.2 86.3333 13.2C88.5666 13.2 90.4999 14.5666 91.3333 16.5H95.5999C94.6333 12.2333 90.7999 9.16663 86.3333 9.16663C81.1333 9.16663 76.7666 13.4333 76.7666 18.7333C76.7666 24.0666 81.0333 28.3 86.3333 28.3C90.7999 28.3 94.5333 25.2 95.5999 21.0666H91.3333Z" fill="#050E5F"/>
<path d="M103.133 27.5333V19.0333C103.133 17.4333 103.133 16.3667 103.333 15.6333V15.5333C103.533 14.8 103.966 14.2667 104.833 13.7333C105.366 13.4 106 13.1 106.966 13.1C107.933 13.1 108.466 13.3 109.1 13.7333C109.833 14.2667 110.266 14.7 110.6 15.5333V15.6333C110.8 16.3667 110.8 17.4333 110.8 19.0333V27.5333H114.733V17.8333C114.733 15.7 114.633 14.7333 114.1 13.1333C113.566 11.7667 112.4 10.5667 110.9 9.93333C109.733 9.4 108.466 9.06666 107.066 9.06666C105.666 9.06666 104.4 9.49999 103.233 10.2333V0H99.2998V17.7667V27.4667H103.133V27.5333Z" fill="#050E5F"/>
<path d="M128.8 9.13344H128.067C126.367 9.23344 124.767 9.86678 123.367 10.8334V0.0667725H119.434V17.8334V20.8001V27.5001H123.367V26.5334C124.867 27.6001 126.767 28.2334 128.7 28.2334C129.867 28.2334 131.034 28.0334 132.1 27.6001C133.067 27.1668 134 26.6334 134.867 26.0001C136.9 24.3001 138.167 21.6334 138.167 18.7668C138.267 13.4001 134 9.13344 128.8 9.13344ZM134.2 19.4668V19.6668C134.2 19.8668 134.1 20.1001 134.1 20.3001C134 20.5001 133.9 20.7334 133.767 20.9334V21.0334C133.234 22.2001 132.267 23.1668 131.1 23.7001C130.767 23.8001 130.367 24.0334 130.034 24.0334C129.834 24.0334 129.7 24.1334 129.5 24.1334H129.4H128.767C128.567 24.1334 128.234 24.1334 128.034 24.0334H127.834C127.3 23.9334 126.867 23.8334 126.434 23.6001H126.334C125.9 23.4001 125.467 23.0668 125.067 22.7668C124.634 22.4334 124.334 22.0334 124.1 21.6001L123.767 20.9668C123.434 20.3334 123.334 19.5668 123.334 18.7334C123.334 17.9001 123.534 17.1334 123.867 16.4001C124.734 14.7001 126.3 13.5334 128.234 13.3001H128.767C131.734 13.3001 134.3 15.7334 134.3 18.8334C134.2 18.9334 134.2 19.1334 134.2 19.4668Z" fill="#050E5F"/>
<path d="M178.267 15.1001C178.267 12.1334 176.033 9.13342 171.133 9.13342C166.233 9.13342 164 12.0001 164 14.8668V14.9668V15.0668C164.1 16.7668 165.067 18.9001 168.8 19.7668L172.1 20.5001C172.967 20.7001 174.433 21.1334 174.533 22.3001C174.533 23.8001 172.6 24.6334 171.233 24.6334C169.633 24.6334 167.933 23.8001 167.933 22.3001V22.2001H164.1V22.3001C164.1 25.1668 166.333 28.1668 171.233 28.1668C176.233 28.1668 178.367 25.2001 178.367 22.3001V22.2001C178.267 20.5001 177.4 18.3668 173.567 17.5001L170.267 16.7668C169.533 16.5668 167.833 16.1334 167.833 15.0668C167.833 13.3668 169.533 12.8334 171.133 12.8334C172.733 12.8334 174.433 13.6668 174.433 15.1668V15.2668H178.267V15.1001Z" fill="#050E5F"/>
<path d="M141.467 18.7C141.467 21.5667 142.733 24.2333 144.767 25.9333C145.633 26.6667 146.467 27.2 147.533 27.5333C148.6 27.9667 149.767 28.1667 150.933 28.1667C152.967 28.1667 154.767 27.5333 156.267 26.4667V27.4333H160.2V20.7333V17.7667V9.66667H156.267V10.7333C154.9 9.76666 153.3 9.23333 151.6 9.03333H150.867C145.8 9.13333 141.467 13.4 141.467 18.7ZM145.5 18.7C145.5 15.7333 147.933 13.1667 151.033 13.1667H151.567C153.467 13.3667 155.167 14.5333 155.933 16.2667C156.267 17 156.467 17.7667 156.467 18.6C156.467 19.3333 156.267 20.1 156.033 20.8333L155.7 21.4667C155.367 21.9 155.067 22.3 154.733 22.6333C154.4 22.9667 154 23.2667 153.467 23.5H153.367C152.933 23.7 152.533 23.8333 152 23.9333H151.8C151.6 23.9333 151.267 24.0333 151.067 24.0333H150.433H150.333C150.133 24.0333 150 24.0333 149.8 23.9333C149.367 23.8333 149.067 23.7333 148.733 23.6C147.567 23.0667 146.6 22.1 146.067 20.9333V20.8333C145.967 20.6333 145.867 20.4 145.733 20.2C145.633 20 145.633 19.7667 145.633 19.5667V19.3667C145.6 19.1333 145.5 18.9333 145.5 18.7Z" fill="#050E5F"/>
</svg>
