<svg width="180" height="34" viewBox="0 0 180 34" fill="none" xmlns="http://www.w3.org/2000/svg">
<g clip-path="url(#clip0)">
<path d="M0 0H13.1963C15.7098 0 17.595 0.628394 18.9915 1.67572C20.5275 2.93251 21.3654 4.74787 21.3654 6.98216C21.3654 9.56555 20.3181 11.1715 18.2234 12.149V12.2886C21.0163 13.1963 22.6222 15.7099 22.6222 18.7122C22.6222 21.5749 21.505 23.8092 19.6897 25.2056C18.1536 26.3227 16.1986 26.8115 13.5454 26.8115H0V0ZM11.8697 10.4732C13.2661 10.4732 14.3134 9.7052 14.3134 8.0993C14.3134 6.56323 13.2661 5.79519 11.7998 5.79519H7.26144V10.4034H11.8697V10.4732ZM12.4981 20.8766C14.104 20.8766 15.2909 19.8991 15.2909 18.1536C15.2909 16.2684 14.0341 15.4306 12.4981 15.4306H7.33126V20.9465H12.4981V20.8766Z" fill="#050E5F"/>
<path d="M23.8091 0H30.7214V26.8813H23.8091V0Z" fill="#050E5F"/>
<path d="M32.1182 17.3158C32.1182 11.2413 36.0282 7.19165 42.1027 7.19165C48.1771 7.19165 52.0173 11.3111 52.0173 17.3158C52.0173 23.3903 48.1771 27.4399 42.1027 27.4399C36.0282 27.4399 32.1182 23.3903 32.1182 17.3158ZM45.105 17.3158C45.105 13.9643 44.0577 11.8697 41.963 11.8697C39.8684 11.8697 38.8909 13.9643 38.8909 17.3158C38.8909 20.6672 39.8684 22.8317 41.963 22.8317C44.0577 22.7619 45.105 20.6672 45.105 17.3158Z" fill="#050E5F"/>
<path d="M52.7852 17.3158C52.7852 11.2413 56.6952 7.19165 62.7696 7.19165C68.8441 7.19165 72.6145 11.2413 72.6145 17.3158C72.6145 23.3903 68.7743 27.4399 62.6998 27.4399C56.6952 27.4399 52.7852 23.3903 52.7852 17.3158ZM65.772 17.3158C65.772 13.9643 64.7246 11.8697 62.63 11.8697C60.5353 11.8697 59.5578 13.9643 59.5578 17.3158C59.5578 20.6672 60.5353 22.8317 62.63 22.8317C64.7246 22.7619 65.772 20.6672 65.772 17.3158Z" fill="#050E5F"/>
<path d="M74.0107 7.6804H80.4343V10.5431H80.574C81.8308 8.30879 83.5763 7.12183 86.3692 7.12183C88.8129 7.12183 90.6283 8.30879 91.536 10.4034H91.6756C93.2117 7.88986 95.2365 7.12183 97.6104 7.12183C102.079 7.12183 103.964 10.4034 103.964 14.8022V26.8115H97.2613V15.9892C97.2613 14.0342 96.6329 12.7774 94.9572 12.7774C93.2815 12.7774 92.4436 14.3134 92.4436 16.4081V26.8115H85.7408V15.9892C85.7408 14.0342 85.1124 12.7774 83.4367 12.7774C81.7609 12.7774 80.9231 14.3134 80.9231 16.4081V26.8115H74.0107V7.6804Z" fill="#050E5F"/>
<path d="M112.413 24.2979H112.343V26.8115H105.919V0H112.622V9.63538H112.762C114.019 7.95966 115.764 7.05198 118.208 7.05198C123.026 7.05198 125.819 11.3809 125.819 17.1761C125.819 23.6695 122.816 27.4399 117.789 27.4399C115.694 27.4399 113.53 26.4624 112.413 24.2979ZM118.906 17.1063C118.906 14.0341 117.789 12.0093 115.764 12.0093C113.67 12.0093 112.413 14.0341 112.413 17.1063C112.413 20.1784 113.739 22.2033 115.764 22.2033C117.789 22.2033 118.906 20.2483 118.906 17.1063Z" fill="#050E5F"/>
<path d="M126.586 17.246C126.586 11.2413 130.566 7.12183 136.292 7.12183C139.154 7.12183 141.319 8.02951 142.994 9.6354C145.229 11.7999 146.206 15.1513 146.136 19.0613H133.289C133.569 21.4352 134.686 22.692 136.711 22.692C137.898 22.692 138.945 22.1335 139.364 20.8767H145.857C144.74 25.2754 141.319 27.4399 136.501 27.4399C130.566 27.3701 126.586 23.3204 126.586 17.246ZM133.289 15.2211H139.434C139.294 12.917 138.037 11.7301 136.431 11.7301C134.546 11.6602 133.499 12.9868 133.289 15.2211Z" fill="#050E5F"/>
<path d="M153.747 10.962H153.887C155.283 8.3088 157.099 7.26147 159.403 7.26147C159.961 7.26147 160.311 7.3313 160.52 7.47094V13.336H160.38C156.401 12.6377 154.096 14.5229 154.096 18.8519V26.8813H147.324V7.6804H153.747V10.962Z" fill="#050E5F"/>
<path d="M161.218 26.8813H167.711C167.99 27.7192 168.828 28.4872 170.434 28.4872C172.599 28.4872 173.367 27.1606 173.367 25.1358V23.7394H173.227C172.18 24.9961 170.714 25.9038 168.619 25.9038C164.499 25.9038 160.869 22.8317 160.869 16.827C160.869 11.3111 163.801 7.052 168.27 7.052C170.853 7.052 172.389 8.09933 173.437 9.70522H173.576V7.61057H180V24.2281C180 27.3003 178.952 29.6742 177.347 31.0706C175.671 32.5369 173.297 33.1653 170.574 33.1653C165.407 33.2351 161.846 31.1404 161.218 26.8813ZM173.646 16.5477C173.646 14.1738 172.529 12.2188 170.574 12.2188C168.689 12.2188 167.502 13.8945 167.502 16.5477C167.502 19.1311 168.689 20.9465 170.574 20.9465C172.459 20.9465 173.646 19.0613 173.646 16.5477Z" fill="#050E5F"/>
</g>
<defs>
<clipPath id="clip0">
<rect width="180" height="33.2351" fill="white"/>
</clipPath>
</defs>
</svg>
